%TF.GenerationSoftware,KiCad,Pcbnew,7.0.8*%
%TF.CreationDate,2024-12-25T15:07:26+01:00*%
%TF.ProjectId,STM32_Multimeter_PCB,53544d33-325f-44d7-956c-74696d657465,rev?*%
%TF.SameCoordinates,Original*%
%TF.FileFunction,Drillmap*%
%TF.FilePolarity,Positive*%
%FSLAX45Y45*%
G04 Gerber Fmt 4.5, Leading zero omitted, Abs format (unit mm)*
G04 Created by KiCad (PCBNEW 7.0.8) date 2024-12-25 15:07:26*
%MOMM*%
%LPD*%
G01*
G04 APERTURE LIST*
%ADD10C,0.200000*%
%ADD11C,0.040000*%
%ADD12C,0.100000*%
%ADD13C,0.120000*%
%ADD14C,0.140000*%
%ADD15C,0.170000*%
G04 APERTURE END LIST*
D10*
X3098800Y-2032000D02*
X8623300Y-2032000D01*
X8623300Y-9677400D01*
X3098800Y-9677400D01*
X3098800Y-2032000D01*
D11*
X3167700Y-2100900D02*
X3207700Y-2140900D01*
X3207700Y-2100900D02*
X3167700Y-2140900D01*
X3167700Y-2545400D02*
X3207700Y-2585400D01*
X3207700Y-2545400D02*
X3167700Y-2585400D01*
X3167700Y-3002600D02*
X3207700Y-3042600D01*
X3207700Y-3002600D02*
X3167700Y-3042600D01*
X3167700Y-3472500D02*
X3207700Y-3512500D01*
X3207700Y-3472500D02*
X3167700Y-3512500D01*
X3167700Y-3904300D02*
X3207700Y-3944300D01*
X3207700Y-3904300D02*
X3167700Y-3944300D01*
X3167700Y-4336100D02*
X3207700Y-4376100D01*
X3207700Y-4336100D02*
X3167700Y-4376100D01*
X3167700Y-4780600D02*
X3207700Y-4820600D01*
X3207700Y-4780600D02*
X3167700Y-4820600D01*
X3167700Y-5237800D02*
X3207700Y-5277800D01*
X3207700Y-5237800D02*
X3167700Y-5277800D01*
X3167700Y-5695000D02*
X3207700Y-5735000D01*
X3207700Y-5695000D02*
X3167700Y-5735000D01*
X3167700Y-6152200D02*
X3207700Y-6192200D01*
X3207700Y-6152200D02*
X3167700Y-6192200D01*
X3167700Y-6609400D02*
X3207700Y-6649400D01*
X3207700Y-6609400D02*
X3167700Y-6649400D01*
X3167700Y-7041200D02*
X3207700Y-7081200D01*
X3207700Y-7041200D02*
X3167700Y-7081200D01*
X3167700Y-7485700D02*
X3207700Y-7525700D01*
X3207700Y-7485700D02*
X3167700Y-7525700D01*
X3167700Y-7930200D02*
X3207700Y-7970200D01*
X3207700Y-7930200D02*
X3167700Y-7970200D01*
X3167700Y-8387400D02*
X3207700Y-8427400D01*
X3207700Y-8387400D02*
X3167700Y-8427400D01*
X3167700Y-8844600D02*
X3207700Y-8884600D01*
X3207700Y-8844600D02*
X3167700Y-8884600D01*
X3167700Y-9238300D02*
X3207700Y-9278300D01*
X3207700Y-9238300D02*
X3167700Y-9278300D01*
X3167700Y-9581200D02*
X3207700Y-9621200D01*
X3207700Y-9581200D02*
X3167700Y-9621200D01*
X3586800Y-2100900D02*
X3626800Y-2140900D01*
X3626800Y-2100900D02*
X3586800Y-2140900D01*
X3586800Y-8616000D02*
X3626800Y-8656000D01*
X3626800Y-8616000D02*
X3586800Y-8656000D01*
X3624900Y-9581200D02*
X3664900Y-9621200D01*
X3664900Y-9581200D02*
X3624900Y-9621200D01*
X3777300Y-8895400D02*
X3817300Y-8935400D01*
X3817300Y-8895400D02*
X3777300Y-8935400D01*
X3917000Y-2776600D02*
X3957000Y-2816600D01*
X3957000Y-2776600D02*
X3917000Y-2816600D01*
X3917000Y-2892233D02*
X3957000Y-2932233D01*
X3957000Y-2892233D02*
X3917000Y-2932233D01*
X3917000Y-3005200D02*
X3957000Y-3045200D01*
X3957000Y-3005200D02*
X3917000Y-3045200D01*
X3942400Y-3853500D02*
X3982400Y-3893500D01*
X3982400Y-3853500D02*
X3942400Y-3893500D01*
X3980500Y-7142800D02*
X4020500Y-7182800D01*
X4020500Y-7142800D02*
X3980500Y-7182800D01*
X4044000Y-4358550D02*
X4084000Y-4398550D01*
X4084000Y-4358550D02*
X4044000Y-4398550D01*
X4044000Y-9581200D02*
X4084000Y-9621200D01*
X4084000Y-9581200D02*
X4044000Y-9621200D01*
X4056700Y-5606100D02*
X4096700Y-5646100D01*
X4096700Y-5606100D02*
X4056700Y-5646100D01*
X4082100Y-8616000D02*
X4122100Y-8656000D01*
X4122100Y-8616000D02*
X4082100Y-8656000D01*
X4158300Y-4348800D02*
X4198300Y-4388800D01*
X4198300Y-4348800D02*
X4158300Y-4388800D01*
X4259900Y-8908100D02*
X4299900Y-8948100D01*
X4299900Y-8908100D02*
X4259900Y-8948100D01*
X4285300Y-2100900D02*
X4325300Y-2140900D01*
X4325300Y-2100900D02*
X4285300Y-2140900D01*
X4412300Y-7942900D02*
X4452300Y-7982900D01*
X4452300Y-7942900D02*
X4412300Y-7982900D01*
X4463100Y-7701600D02*
X4503100Y-7741600D01*
X4503100Y-7701600D02*
X4463100Y-7741600D01*
X4475800Y-6215700D02*
X4515800Y-6255700D01*
X4515800Y-6215700D02*
X4475800Y-6255700D01*
X4475800Y-9581200D02*
X4515800Y-9621200D01*
X4515800Y-9581200D02*
X4475800Y-9621200D01*
X4539300Y-4539300D02*
X4579300Y-4579300D01*
X4579300Y-4539300D02*
X4539300Y-4579300D01*
X4577400Y-5542600D02*
X4617400Y-5582600D01*
X4617400Y-5542600D02*
X4577400Y-5582600D01*
X4577400Y-5673150D02*
X4617400Y-5713150D01*
X4617400Y-5673150D02*
X4577400Y-5713150D01*
X4577400Y-8412800D02*
X4617400Y-8452800D01*
X4617400Y-8412800D02*
X4577400Y-8452800D01*
X4577400Y-8616000D02*
X4617400Y-8656000D01*
X4617400Y-8616000D02*
X4577400Y-8656000D01*
X4590100Y-5199700D02*
X4630100Y-5239700D01*
X4630100Y-5199700D02*
X4590100Y-5239700D01*
X4635500Y-3284000D02*
X4675500Y-3324000D01*
X4675500Y-3284000D02*
X4635500Y-3324000D01*
X4806000Y-8222300D02*
X4846000Y-8262300D01*
X4846000Y-8222300D02*
X4806000Y-8262300D01*
X4869500Y-6093050D02*
X4909500Y-6133050D01*
X4909500Y-6093050D02*
X4869500Y-6133050D01*
X4882200Y-3891600D02*
X4922200Y-3931600D01*
X4922200Y-3891600D02*
X4882200Y-3931600D01*
X4887900Y-3701100D02*
X4927900Y-3741100D01*
X4927900Y-3701100D02*
X4887900Y-3741100D01*
X4890800Y-4497100D02*
X4930800Y-4537100D01*
X4930800Y-4497100D02*
X4890800Y-4537100D01*
X4920300Y-9581200D02*
X4960300Y-9621200D01*
X4960300Y-9581200D02*
X4920300Y-9621200D01*
X4933000Y-2100900D02*
X4973000Y-2140900D01*
X4973000Y-2100900D02*
X4933000Y-2140900D01*
X4984069Y-3454106D02*
X5024069Y-3494106D01*
X5024069Y-3454106D02*
X4984069Y-3494106D01*
X5123500Y-6520500D02*
X5163500Y-6560500D01*
X5163500Y-6520500D02*
X5123500Y-6560500D01*
X5123500Y-7342250D02*
X5163500Y-7382250D01*
X5163500Y-7342250D02*
X5123500Y-7382250D01*
X5229005Y-7687151D02*
X5269005Y-7727151D01*
X5269005Y-7687151D02*
X5229005Y-7727151D01*
X5250500Y-6533200D02*
X5290500Y-6573200D01*
X5290500Y-6533200D02*
X5250500Y-6573200D01*
X5263200Y-6093050D02*
X5303200Y-6133050D01*
X5303200Y-6093050D02*
X5263200Y-6133050D01*
X5326200Y-5440500D02*
X5366200Y-5480500D01*
X5366200Y-5440500D02*
X5326200Y-5480500D01*
X5326700Y-6406200D02*
X5366700Y-6446200D01*
X5366700Y-6406200D02*
X5326700Y-6446200D01*
X5364800Y-9581200D02*
X5404800Y-9621200D01*
X5404800Y-9581200D02*
X5364800Y-9621200D01*
X5390200Y-2100900D02*
X5430200Y-2140900D01*
X5430200Y-2100900D02*
X5390200Y-2140900D01*
X5413248Y-6531550D02*
X5453248Y-6571550D01*
X5453248Y-6531550D02*
X5413248Y-6571550D01*
X5415600Y-5673150D02*
X5455600Y-5713150D01*
X5455600Y-5673150D02*
X5415600Y-5713150D01*
X5428300Y-7028500D02*
X5468300Y-7068500D01*
X5468300Y-7028500D02*
X5428300Y-7068500D01*
X5498000Y-6158700D02*
X5538000Y-6198700D01*
X5538000Y-6158700D02*
X5498000Y-6198700D01*
X5504465Y-5580700D02*
X5544465Y-5620700D01*
X5544465Y-5580700D02*
X5504465Y-5620700D01*
X5504500Y-5225100D02*
X5544500Y-5265100D01*
X5544500Y-5225100D02*
X5504500Y-5265100D01*
X5527350Y-4397050D02*
X5567350Y-4437050D01*
X5567350Y-4397050D02*
X5527350Y-4437050D01*
X5529900Y-4285300D02*
X5569900Y-4325300D01*
X5569900Y-4285300D02*
X5529900Y-4325300D01*
X5606100Y-6571300D02*
X5646100Y-6611300D01*
X5646100Y-6571300D02*
X5606100Y-6611300D01*
X5623920Y-7444654D02*
X5663920Y-7484654D01*
X5663920Y-7444654D02*
X5623920Y-7484654D01*
X5682300Y-6672900D02*
X5722300Y-6712900D01*
X5722300Y-6672900D02*
X5682300Y-6712900D01*
X5682300Y-6926900D02*
X5722300Y-6966900D01*
X5722300Y-6926900D02*
X5682300Y-6966900D01*
X5707700Y-6799900D02*
X5747700Y-6839900D01*
X5747700Y-6799900D02*
X5707700Y-6839900D01*
X5720400Y-7917500D02*
X5760400Y-7957500D01*
X5760400Y-7917500D02*
X5720400Y-7957500D01*
X5822000Y-8514400D02*
X5862000Y-8554400D01*
X5862000Y-8514400D02*
X5822000Y-8554400D01*
X5822000Y-8717600D02*
X5862000Y-8757600D01*
X5862000Y-8717600D02*
X5822000Y-8757600D01*
X5822000Y-8920800D02*
X5862000Y-8960800D01*
X5862000Y-8920800D02*
X5822000Y-8960800D01*
X5822000Y-9149400D02*
X5862000Y-9189400D01*
X5862000Y-9149400D02*
X5822000Y-9189400D01*
X5822000Y-9365300D02*
X5862000Y-9405300D01*
X5862000Y-9365300D02*
X5822000Y-9405300D01*
X5822000Y-9581200D02*
X5862000Y-9621200D01*
X5862000Y-9581200D02*
X5822000Y-9621200D01*
X5829848Y-8261470D02*
X5869848Y-8301470D01*
X5869848Y-8261470D02*
X5829848Y-8301470D01*
X5830424Y-6161262D02*
X5870424Y-6201262D01*
X5870424Y-6161262D02*
X5830424Y-6201262D01*
X5834700Y-2100900D02*
X5874700Y-2140900D01*
X5874700Y-2100900D02*
X5834700Y-2140900D01*
X5840600Y-5656900D02*
X5880600Y-5696900D01*
X5880600Y-5656900D02*
X5840600Y-5696900D01*
X5849829Y-8005576D02*
X5889829Y-8045576D01*
X5889829Y-8005576D02*
X5849829Y-8045576D01*
X5872800Y-5402900D02*
X5912800Y-5442900D01*
X5912800Y-5402900D02*
X5872800Y-5442900D01*
X5974400Y-7790500D02*
X6014400Y-7830500D01*
X6014400Y-7790500D02*
X5974400Y-7830500D01*
X6050600Y-9581200D02*
X6090600Y-9621200D01*
X6090600Y-9581200D02*
X6050600Y-9621200D01*
X6139500Y-8831900D02*
X6179500Y-8871900D01*
X6179500Y-8831900D02*
X6139500Y-8871900D01*
X6152200Y-9276400D02*
X6192200Y-9316400D01*
X6192200Y-9276400D02*
X6152200Y-9316400D01*
X6173850Y-7866750D02*
X6213850Y-7906750D01*
X6213850Y-7866750D02*
X6173850Y-7906750D01*
X6203000Y-4592300D02*
X6243000Y-4632300D01*
X6243000Y-4592300D02*
X6203000Y-4632300D01*
X6224794Y-7708050D02*
X6264794Y-7748050D01*
X6264794Y-7708050D02*
X6224794Y-7748050D01*
X6266500Y-2100900D02*
X6306500Y-2140900D01*
X6306500Y-2100900D02*
X6266500Y-2140900D01*
X6269254Y-7814193D02*
X6309254Y-7854193D01*
X6309254Y-7814193D02*
X6269254Y-7854193D01*
X6279200Y-9581200D02*
X6319200Y-9621200D01*
X6319200Y-9581200D02*
X6279200Y-9621200D01*
X6304600Y-6698300D02*
X6344600Y-6738300D01*
X6344600Y-6698300D02*
X6304600Y-6738300D01*
X6367764Y-7831103D02*
X6407764Y-7871103D01*
X6407764Y-7831103D02*
X6367764Y-7871103D01*
X6368100Y-7015800D02*
X6408100Y-7055800D01*
X6408100Y-7015800D02*
X6368100Y-7055800D01*
X6380800Y-7930200D02*
X6420800Y-7970200D01*
X6420800Y-7930200D02*
X6380800Y-7970200D01*
X6444300Y-8666800D02*
X6484300Y-8706800D01*
X6484300Y-8666800D02*
X6444300Y-8706800D01*
X6444300Y-9060500D02*
X6484300Y-9100500D01*
X6484300Y-9060500D02*
X6444300Y-9100500D01*
X6507800Y-9581200D02*
X6547800Y-9621200D01*
X6547800Y-9581200D02*
X6507800Y-9621200D01*
X6525550Y-7739700D02*
X6565550Y-7779700D01*
X6565550Y-7739700D02*
X6525550Y-7779700D01*
X6558600Y-6444300D02*
X6598600Y-6484300D01*
X6598600Y-6444300D02*
X6558600Y-6484300D01*
X6575514Y-6766874D02*
X6615514Y-6806874D01*
X6615514Y-6766874D02*
X6575514Y-6806874D01*
X6631350Y-8235000D02*
X6671350Y-8275000D01*
X6671350Y-8235000D02*
X6631350Y-8275000D01*
X6647500Y-6126800D02*
X6687500Y-6166800D01*
X6687500Y-6126800D02*
X6647500Y-6166800D01*
X6660200Y-8831900D02*
X6700200Y-8871900D01*
X6700200Y-8831900D02*
X6660200Y-8871900D01*
X6672900Y-5547150D02*
X6712900Y-5587150D01*
X6712900Y-5547150D02*
X6672900Y-5587150D01*
X6685600Y-5225100D02*
X6725600Y-5265100D01*
X6725600Y-5225100D02*
X6685600Y-5265100D01*
X6698300Y-2100900D02*
X6738300Y-2140900D01*
X6738300Y-2100900D02*
X6698300Y-2140900D01*
X6704450Y-4412300D02*
X6744450Y-4452300D01*
X6744450Y-4412300D02*
X6704450Y-4452300D01*
X6711000Y-8539800D02*
X6751000Y-8579800D01*
X6751000Y-8539800D02*
X6711000Y-8579800D01*
X6723700Y-9289100D02*
X6763700Y-9329100D01*
X6763700Y-9289100D02*
X6723700Y-9329100D01*
X6736400Y-9581200D02*
X6776400Y-9621200D01*
X6776400Y-9581200D02*
X6736400Y-9621200D01*
X6761370Y-6240670D02*
X6801370Y-6280670D01*
X6801370Y-6240670D02*
X6761370Y-6280670D01*
X6787200Y-8235000D02*
X6827200Y-8275000D01*
X6827200Y-8235000D02*
X6787200Y-8275000D01*
X6799900Y-2812100D02*
X6839900Y-2852100D01*
X6839900Y-2812100D02*
X6799900Y-2852100D01*
X6800330Y-7448030D02*
X6840330Y-7488030D01*
X6840330Y-7448030D02*
X6800330Y-7488030D01*
X6825550Y-6749100D02*
X6865550Y-6789100D01*
X6865550Y-6749100D02*
X6825550Y-6789100D01*
X6829050Y-7778080D02*
X6869050Y-7818080D01*
X6869050Y-7778080D02*
X6829050Y-7818080D01*
X6876100Y-8438200D02*
X6916100Y-8478200D01*
X6916100Y-8438200D02*
X6876100Y-8478200D01*
X6920340Y-6780801D02*
X6960340Y-6820801D01*
X6960340Y-6780801D02*
X6920340Y-6820801D01*
X6965000Y-9581200D02*
X7005000Y-9621200D01*
X7005000Y-9581200D02*
X6965000Y-9621200D01*
X7003100Y-8895400D02*
X7043100Y-8935400D01*
X7043100Y-8895400D02*
X7003100Y-8935400D01*
X7006892Y-6433350D02*
X7046892Y-6473350D01*
X7046892Y-6433350D02*
X7006892Y-6473350D01*
X7015520Y-7879680D02*
X7055520Y-7919680D01*
X7055520Y-7879680D02*
X7015520Y-7919680D01*
X7066600Y-9225600D02*
X7106600Y-9265600D01*
X7106600Y-9225600D02*
X7066600Y-9265600D01*
X7079300Y-4323400D02*
X7119300Y-4363400D01*
X7119300Y-4323400D02*
X7079300Y-4363400D01*
X7104700Y-8616000D02*
X7144700Y-8656000D01*
X7144700Y-8616000D02*
X7104700Y-8656000D01*
X7117400Y-7650800D02*
X7157400Y-7690800D01*
X7157400Y-7650800D02*
X7117400Y-7690800D01*
X7130100Y-8412800D02*
X7170100Y-8452800D01*
X7170100Y-8412800D02*
X7130100Y-8452800D01*
X7142800Y-2100900D02*
X7182800Y-2140900D01*
X7182800Y-2100900D02*
X7142800Y-2140900D01*
X7193600Y-9581200D02*
X7233600Y-9621200D01*
X7233600Y-9581200D02*
X7193600Y-9621200D01*
X7244400Y-7854000D02*
X7284400Y-7894000D01*
X7284400Y-7854000D02*
X7244400Y-7894000D01*
X7257100Y-8768400D02*
X7297100Y-8808400D01*
X7297100Y-8768400D02*
X7257100Y-8808400D01*
X7307900Y-9441500D02*
X7347900Y-9481500D01*
X7347900Y-9441500D02*
X7307900Y-9481500D01*
X7346000Y-4221800D02*
X7386000Y-4261800D01*
X7386000Y-4221800D02*
X7346000Y-4261800D01*
X7384100Y-3307400D02*
X7424100Y-3347400D01*
X7424100Y-3307400D02*
X7384100Y-3347400D01*
X7409500Y-8616000D02*
X7449500Y-8656000D01*
X7449500Y-8616000D02*
X7409500Y-8656000D01*
X7409500Y-9581200D02*
X7449500Y-9621200D01*
X7449500Y-9581200D02*
X7409500Y-9621200D01*
X7422200Y-8933500D02*
X7462200Y-8973500D01*
X7462200Y-8933500D02*
X7422200Y-8973500D01*
X7485700Y-3967800D02*
X7525700Y-4007800D01*
X7525700Y-3967800D02*
X7485700Y-4007800D01*
X7561900Y-6723700D02*
X7601900Y-6763700D01*
X7601900Y-6723700D02*
X7561900Y-6763700D01*
X7561900Y-6926900D02*
X7601900Y-6966900D01*
X7601900Y-6926900D02*
X7561900Y-6966900D01*
X7600000Y-2100900D02*
X7640000Y-2140900D01*
X7640000Y-2100900D02*
X7600000Y-2140900D01*
X7638100Y-9581200D02*
X7678100Y-9621200D01*
X7678100Y-9581200D02*
X7638100Y-9621200D01*
X7663500Y-7346000D02*
X7703500Y-7386000D01*
X7703500Y-7346000D02*
X7663500Y-7386000D01*
X7688900Y-8412800D02*
X7728900Y-8452800D01*
X7728900Y-8412800D02*
X7688900Y-8452800D01*
X7688900Y-8844600D02*
X7728900Y-8884600D01*
X7728900Y-8844600D02*
X7688900Y-8884600D01*
X7765100Y-9035100D02*
X7805100Y-9075100D01*
X7805100Y-9035100D02*
X7765100Y-9075100D01*
X7777800Y-9466900D02*
X7817800Y-9506900D01*
X7817800Y-9466900D02*
X7777800Y-9506900D01*
X7793900Y-7841300D02*
X7833900Y-7881300D01*
X7833900Y-7841300D02*
X7793900Y-7881300D01*
X7854000Y-9225600D02*
X7894000Y-9265600D01*
X7894000Y-9225600D02*
X7854000Y-9265600D01*
X7854000Y-9581200D02*
X7894000Y-9621200D01*
X7894000Y-9581200D02*
X7854000Y-9621200D01*
X7930200Y-8628700D02*
X7970200Y-8668700D01*
X7970200Y-8628700D02*
X7930200Y-8668700D01*
X8006400Y-3955100D02*
X8046400Y-3995100D01*
X8046400Y-3955100D02*
X8006400Y-3995100D01*
X8057200Y-2100900D02*
X8097200Y-2140900D01*
X8097200Y-2100900D02*
X8057200Y-2140900D01*
X8069900Y-9581200D02*
X8109900Y-9621200D01*
X8109900Y-9581200D02*
X8069900Y-9621200D01*
X8082600Y-4894900D02*
X8122600Y-4934900D01*
X8122600Y-4894900D02*
X8082600Y-4934900D01*
X8171500Y-4361500D02*
X8211500Y-4401500D01*
X8211500Y-4361500D02*
X8171500Y-4401500D01*
X8171500Y-8412800D02*
X8211500Y-8452800D01*
X8211500Y-8412800D02*
X8171500Y-8452800D01*
X8171500Y-8844600D02*
X8211500Y-8884600D01*
X8211500Y-8844600D02*
X8171500Y-8884600D01*
X8171500Y-9263700D02*
X8211500Y-9303700D01*
X8211500Y-9263700D02*
X8171500Y-9303700D01*
X8285800Y-3548700D02*
X8325800Y-3588700D01*
X8325800Y-3548700D02*
X8285800Y-3588700D01*
X8285800Y-9581200D02*
X8325800Y-9621200D01*
X8325800Y-9581200D02*
X8285800Y-9621200D01*
X8514400Y-2100900D02*
X8554400Y-2140900D01*
X8554400Y-2100900D02*
X8514400Y-2140900D01*
X8514400Y-2532700D02*
X8554400Y-2572700D01*
X8554400Y-2532700D02*
X8514400Y-2572700D01*
X8514400Y-2964500D02*
X8554400Y-3004500D01*
X8554400Y-2964500D02*
X8514400Y-3004500D01*
X8514400Y-3409000D02*
X8554400Y-3449000D01*
X8554400Y-3409000D02*
X8514400Y-3449000D01*
X8514400Y-3853500D02*
X8554400Y-3893500D01*
X8554400Y-3853500D02*
X8514400Y-3893500D01*
X8514400Y-4310700D02*
X8554400Y-4350700D01*
X8554400Y-4310700D02*
X8514400Y-4350700D01*
X8514400Y-4767900D02*
X8554400Y-4807900D01*
X8554400Y-4767900D02*
X8514400Y-4807900D01*
X8514400Y-5187000D02*
X8554400Y-5227000D01*
X8554400Y-5187000D02*
X8514400Y-5227000D01*
X8514400Y-5618800D02*
X8554400Y-5658800D01*
X8554400Y-5618800D02*
X8514400Y-5658800D01*
X8514400Y-6050600D02*
X8554400Y-6090600D01*
X8554400Y-6050600D02*
X8514400Y-6090600D01*
X8514400Y-6495100D02*
X8554400Y-6535100D01*
X8554400Y-6495100D02*
X8514400Y-6535100D01*
X8514400Y-6952300D02*
X8554400Y-6992300D01*
X8554400Y-6952300D02*
X8514400Y-6992300D01*
X8514400Y-7409500D02*
X8554400Y-7449500D01*
X8554400Y-7409500D02*
X8514400Y-7449500D01*
X8514400Y-7866700D02*
X8554400Y-7906700D01*
X8554400Y-7866700D02*
X8514400Y-7906700D01*
X8514400Y-8082600D02*
X8554400Y-8122600D01*
X8554400Y-8082600D02*
X8514400Y-8122600D01*
X8514400Y-8298500D02*
X8554400Y-8338500D01*
X8554400Y-8298500D02*
X8514400Y-8338500D01*
X8514400Y-8514400D02*
X8554400Y-8554400D01*
X8554400Y-8514400D02*
X8514400Y-8554400D01*
X8514400Y-8730300D02*
X8554400Y-8770300D01*
X8554400Y-8730300D02*
X8514400Y-8770300D01*
X8514400Y-8946200D02*
X8554400Y-8986200D01*
X8554400Y-8946200D02*
X8514400Y-8986200D01*
X8514400Y-9162100D02*
X8554400Y-9202100D01*
X8554400Y-9162100D02*
X8514400Y-9202100D01*
X8514400Y-9378000D02*
X8554400Y-9418000D01*
X8554400Y-9378000D02*
X8514400Y-9418000D01*
X8514400Y-9581200D02*
X8554400Y-9621200D01*
X8554400Y-9581200D02*
X8514400Y-9621200D01*
D12*
X3504400Y-3350400D02*
G75*
G03*
X3504400Y-3350400I-50000J0D01*
G01*
X3569694Y-7581689D02*
G75*
G03*
X3569694Y-7581689I-50000J0D01*
G01*
X3573503Y-7043271D02*
G75*
G03*
X3573503Y-7043271I-50000J0D01*
G01*
X4012400Y-5334000D02*
G75*
G03*
X4012400Y-5334000I-50000J0D01*
G01*
X4266400Y-5334000D02*
G75*
G03*
X4266400Y-5334000I-50000J0D01*
G01*
X4369700Y-4010800D02*
G75*
G03*
X4369700Y-4010800I-50000J0D01*
G01*
X4520400Y-5334000D02*
G75*
G03*
X4520400Y-5334000I-50000J0D01*
G01*
X5269700Y-4010800D02*
G75*
G03*
X5269700Y-4010800I-50000J0D01*
G01*
X5842900Y-4010800D02*
G75*
G03*
X5842900Y-4010800I-50000J0D01*
G01*
X6742900Y-4010800D02*
G75*
G03*
X6742900Y-4010800I-50000J0D01*
G01*
X7192800Y-2394700D02*
G75*
G03*
X7192800Y-2394700I-50000J0D01*
G01*
X7446800Y-2394700D02*
G75*
G03*
X7446800Y-2394700I-50000J0D01*
G01*
X8216100Y-5721500D02*
G75*
G03*
X8216100Y-5721500I-50000J0D01*
G01*
X8216100Y-5975500D02*
G75*
G03*
X8216100Y-5975500I-50000J0D01*
G01*
X8216100Y-6229500D02*
G75*
G03*
X8216100Y-6229500I-50000J0D01*
G01*
X8216100Y-6483500D02*
G75*
G03*
X8216100Y-6483500I-50000J0D01*
G01*
X8216100Y-7008900D02*
G75*
G03*
X8216100Y-7008900I-50000J0D01*
G01*
X8216100Y-7262900D02*
G75*
G03*
X8216100Y-7262900I-50000J0D01*
G01*
X8216100Y-7516900D02*
G75*
G03*
X8216100Y-7516900I-50000J0D01*
G01*
D13*
X3921800Y-2141500D02*
X3921800Y-2261500D01*
X3861800Y-2201500D02*
X3981800Y-2201500D01*
X4696800Y-2141500D02*
X4696800Y-2261500D01*
X4636800Y-2201500D02*
X4756800Y-2201500D01*
X5372100Y-3153100D02*
X5372100Y-3273100D01*
X5312100Y-3213100D02*
X5432100Y-3213100D01*
X7912100Y-3153100D02*
X7912100Y-3273100D01*
X7852100Y-3213100D02*
X7972100Y-3213100D01*
D14*
X3986298Y-2630998D02*
X3986298Y-2532002D01*
X3887302Y-2532002D01*
X3887302Y-2630998D01*
X3986298Y-2630998D01*
X4731298Y-2630998D02*
X4731298Y-2532002D01*
X4632302Y-2532002D01*
X4632302Y-2630998D01*
X4731298Y-2630998D01*
D15*
X3454400Y-3919400D02*
X3539400Y-3834400D01*
X3454400Y-3749400D01*
X3369400Y-3834400D01*
X3454400Y-3919400D01*
X3454400Y-4595400D02*
X3539400Y-4510400D01*
X3454400Y-4425400D01*
X3369400Y-4510400D01*
X3454400Y-4595400D01*
X3454400Y-5323400D02*
X3539400Y-5238400D01*
X3454400Y-5153400D01*
X3369400Y-5238400D01*
X3454400Y-5323400D01*
X3454400Y-5999400D02*
X3539400Y-5914400D01*
X3454400Y-5829400D01*
X3369400Y-5914400D01*
X3454400Y-5999400D01*
D10*
X3349577Y-9998884D02*
X3349577Y-9798884D01*
X3349577Y-9798884D02*
X3397196Y-9798884D01*
X3397196Y-9798884D02*
X3425767Y-9808408D01*
X3425767Y-9808408D02*
X3444815Y-9827455D01*
X3444815Y-9827455D02*
X3454339Y-9846503D01*
X3454339Y-9846503D02*
X3463862Y-9884598D01*
X3463862Y-9884598D02*
X3463862Y-9913170D01*
X3463862Y-9913170D02*
X3454339Y-9951265D01*
X3454339Y-9951265D02*
X3444815Y-9970312D01*
X3444815Y-9970312D02*
X3425767Y-9989360D01*
X3425767Y-9989360D02*
X3397196Y-9998884D01*
X3397196Y-9998884D02*
X3349577Y-9998884D01*
X3549577Y-9998884D02*
X3549577Y-9865550D01*
X3549577Y-9903646D02*
X3559101Y-9884598D01*
X3559101Y-9884598D02*
X3568624Y-9875074D01*
X3568624Y-9875074D02*
X3587672Y-9865550D01*
X3587672Y-9865550D02*
X3606720Y-9865550D01*
X3673386Y-9998884D02*
X3673386Y-9865550D01*
X3673386Y-9798884D02*
X3663862Y-9808408D01*
X3663862Y-9808408D02*
X3673386Y-9817931D01*
X3673386Y-9817931D02*
X3682910Y-9808408D01*
X3682910Y-9808408D02*
X3673386Y-9798884D01*
X3673386Y-9798884D02*
X3673386Y-9817931D01*
X3797196Y-9998884D02*
X3778148Y-9989360D01*
X3778148Y-9989360D02*
X3768624Y-9970312D01*
X3768624Y-9970312D02*
X3768624Y-9798884D01*
X3901958Y-9998884D02*
X3882910Y-9989360D01*
X3882910Y-9989360D02*
X3873386Y-9970312D01*
X3873386Y-9970312D02*
X3873386Y-9798884D01*
X4130529Y-9998884D02*
X4130529Y-9798884D01*
X4130529Y-9798884D02*
X4197196Y-9941741D01*
X4197196Y-9941741D02*
X4263863Y-9798884D01*
X4263863Y-9798884D02*
X4263863Y-9998884D01*
X4444815Y-9998884D02*
X4444815Y-9894122D01*
X4444815Y-9894122D02*
X4435291Y-9875074D01*
X4435291Y-9875074D02*
X4416244Y-9865550D01*
X4416244Y-9865550D02*
X4378148Y-9865550D01*
X4378148Y-9865550D02*
X4359101Y-9875074D01*
X4444815Y-9989360D02*
X4425767Y-9998884D01*
X4425767Y-9998884D02*
X4378148Y-9998884D01*
X4378148Y-9998884D02*
X4359101Y-9989360D01*
X4359101Y-9989360D02*
X4349577Y-9970312D01*
X4349577Y-9970312D02*
X4349577Y-9951265D01*
X4349577Y-9951265D02*
X4359101Y-9932217D01*
X4359101Y-9932217D02*
X4378148Y-9922693D01*
X4378148Y-9922693D02*
X4425767Y-9922693D01*
X4425767Y-9922693D02*
X4444815Y-9913170D01*
X4540053Y-9865550D02*
X4540053Y-10065550D01*
X4540053Y-9875074D02*
X4559101Y-9865550D01*
X4559101Y-9865550D02*
X4597196Y-9865550D01*
X4597196Y-9865550D02*
X4616244Y-9875074D01*
X4616244Y-9875074D02*
X4625767Y-9884598D01*
X4625767Y-9884598D02*
X4635291Y-9903646D01*
X4635291Y-9903646D02*
X4635291Y-9960789D01*
X4635291Y-9960789D02*
X4625767Y-9979836D01*
X4625767Y-9979836D02*
X4616244Y-9989360D01*
X4616244Y-9989360D02*
X4597196Y-9998884D01*
X4597196Y-9998884D02*
X4559101Y-9998884D01*
X4559101Y-9998884D02*
X4540053Y-9989360D01*
X4721005Y-9979836D02*
X4730529Y-9989360D01*
X4730529Y-9989360D02*
X4721005Y-9998884D01*
X4721005Y-9998884D02*
X4711482Y-9989360D01*
X4711482Y-9989360D02*
X4721005Y-9979836D01*
X4721005Y-9979836D02*
X4721005Y-9998884D01*
X4721005Y-9875074D02*
X4730529Y-9884598D01*
X4730529Y-9884598D02*
X4721005Y-9894122D01*
X4721005Y-9894122D02*
X4711482Y-9884598D01*
X4711482Y-9884598D02*
X4721005Y-9875074D01*
X4721005Y-9875074D02*
X4721005Y-9894122D01*
D11*
X3048800Y-10307400D02*
X3088800Y-10347400D01*
X3088800Y-10307400D02*
X3048800Y-10347400D01*
D10*
X3387672Y-10218884D02*
X3406720Y-10218884D01*
X3406720Y-10218884D02*
X3425767Y-10228408D01*
X3425767Y-10228408D02*
X3435291Y-10237931D01*
X3435291Y-10237931D02*
X3444815Y-10256979D01*
X3444815Y-10256979D02*
X3454339Y-10295074D01*
X3454339Y-10295074D02*
X3454339Y-10342693D01*
X3454339Y-10342693D02*
X3444815Y-10380789D01*
X3444815Y-10380789D02*
X3435291Y-10399836D01*
X3435291Y-10399836D02*
X3425767Y-10409360D01*
X3425767Y-10409360D02*
X3406720Y-10418884D01*
X3406720Y-10418884D02*
X3387672Y-10418884D01*
X3387672Y-10418884D02*
X3368624Y-10409360D01*
X3368624Y-10409360D02*
X3359101Y-10399836D01*
X3359101Y-10399836D02*
X3349577Y-10380789D01*
X3349577Y-10380789D02*
X3340053Y-10342693D01*
X3340053Y-10342693D02*
X3340053Y-10295074D01*
X3340053Y-10295074D02*
X3349577Y-10256979D01*
X3349577Y-10256979D02*
X3359101Y-10237931D01*
X3359101Y-10237931D02*
X3368624Y-10228408D01*
X3368624Y-10228408D02*
X3387672Y-10218884D01*
X3540053Y-10399836D02*
X3549577Y-10409360D01*
X3549577Y-10409360D02*
X3540053Y-10418884D01*
X3540053Y-10418884D02*
X3530529Y-10409360D01*
X3530529Y-10409360D02*
X3540053Y-10399836D01*
X3540053Y-10399836D02*
X3540053Y-10418884D01*
X3721005Y-10285550D02*
X3721005Y-10418884D01*
X3673386Y-10209360D02*
X3625767Y-10352217D01*
X3625767Y-10352217D02*
X3749577Y-10352217D01*
X3863862Y-10218884D02*
X3882910Y-10218884D01*
X3882910Y-10218884D02*
X3901958Y-10228408D01*
X3901958Y-10228408D02*
X3911482Y-10237931D01*
X3911482Y-10237931D02*
X3921005Y-10256979D01*
X3921005Y-10256979D02*
X3930529Y-10295074D01*
X3930529Y-10295074D02*
X3930529Y-10342693D01*
X3930529Y-10342693D02*
X3921005Y-10380789D01*
X3921005Y-10380789D02*
X3911482Y-10399836D01*
X3911482Y-10399836D02*
X3901958Y-10409360D01*
X3901958Y-10409360D02*
X3882910Y-10418884D01*
X3882910Y-10418884D02*
X3863862Y-10418884D01*
X3863862Y-10418884D02*
X3844815Y-10409360D01*
X3844815Y-10409360D02*
X3835291Y-10399836D01*
X3835291Y-10399836D02*
X3825767Y-10380789D01*
X3825767Y-10380789D02*
X3816243Y-10342693D01*
X3816243Y-10342693D02*
X3816243Y-10295074D01*
X3816243Y-10295074D02*
X3825767Y-10256979D01*
X3825767Y-10256979D02*
X3835291Y-10237931D01*
X3835291Y-10237931D02*
X3844815Y-10228408D01*
X3844815Y-10228408D02*
X3863862Y-10218884D01*
X4054339Y-10218884D02*
X4073386Y-10218884D01*
X4073386Y-10218884D02*
X4092434Y-10228408D01*
X4092434Y-10228408D02*
X4101958Y-10237931D01*
X4101958Y-10237931D02*
X4111482Y-10256979D01*
X4111482Y-10256979D02*
X4121005Y-10295074D01*
X4121005Y-10295074D02*
X4121005Y-10342693D01*
X4121005Y-10342693D02*
X4111482Y-10380789D01*
X4111482Y-10380789D02*
X4101958Y-10399836D01*
X4101958Y-10399836D02*
X4092434Y-10409360D01*
X4092434Y-10409360D02*
X4073386Y-10418884D01*
X4073386Y-10418884D02*
X4054339Y-10418884D01*
X4054339Y-10418884D02*
X4035291Y-10409360D01*
X4035291Y-10409360D02*
X4025767Y-10399836D01*
X4025767Y-10399836D02*
X4016243Y-10380789D01*
X4016243Y-10380789D02*
X4006720Y-10342693D01*
X4006720Y-10342693D02*
X4006720Y-10295074D01*
X4006720Y-10295074D02*
X4016243Y-10256979D01*
X4016243Y-10256979D02*
X4025767Y-10237931D01*
X4025767Y-10237931D02*
X4035291Y-10228408D01*
X4035291Y-10228408D02*
X4054339Y-10218884D01*
X4206720Y-10418884D02*
X4206720Y-10285550D01*
X4206720Y-10304598D02*
X4216244Y-10295074D01*
X4216244Y-10295074D02*
X4235291Y-10285550D01*
X4235291Y-10285550D02*
X4263863Y-10285550D01*
X4263863Y-10285550D02*
X4282910Y-10295074D01*
X4282910Y-10295074D02*
X4292434Y-10314122D01*
X4292434Y-10314122D02*
X4292434Y-10418884D01*
X4292434Y-10314122D02*
X4301958Y-10295074D01*
X4301958Y-10295074D02*
X4321005Y-10285550D01*
X4321005Y-10285550D02*
X4349577Y-10285550D01*
X4349577Y-10285550D02*
X4368625Y-10295074D01*
X4368625Y-10295074D02*
X4378148Y-10314122D01*
X4378148Y-10314122D02*
X4378148Y-10418884D01*
X4473386Y-10418884D02*
X4473386Y-10285550D01*
X4473386Y-10304598D02*
X4482910Y-10295074D01*
X4482910Y-10295074D02*
X4501958Y-10285550D01*
X4501958Y-10285550D02*
X4530529Y-10285550D01*
X4530529Y-10285550D02*
X4549577Y-10295074D01*
X4549577Y-10295074D02*
X4559101Y-10314122D01*
X4559101Y-10314122D02*
X4559101Y-10418884D01*
X4559101Y-10314122D02*
X4568625Y-10295074D01*
X4568625Y-10295074D02*
X4587672Y-10285550D01*
X4587672Y-10285550D02*
X4616244Y-10285550D01*
X4616244Y-10285550D02*
X4635291Y-10295074D01*
X4635291Y-10295074D02*
X4644815Y-10314122D01*
X4644815Y-10314122D02*
X4644815Y-10418884D01*
X5035291Y-10209360D02*
X4863863Y-10466503D01*
X5292434Y-10218884D02*
X5311482Y-10218884D01*
X5311482Y-10218884D02*
X5330529Y-10228408D01*
X5330529Y-10228408D02*
X5340053Y-10237931D01*
X5340053Y-10237931D02*
X5349577Y-10256979D01*
X5349577Y-10256979D02*
X5359101Y-10295074D01*
X5359101Y-10295074D02*
X5359101Y-10342693D01*
X5359101Y-10342693D02*
X5349577Y-10380789D01*
X5349577Y-10380789D02*
X5340053Y-10399836D01*
X5340053Y-10399836D02*
X5330529Y-10409360D01*
X5330529Y-10409360D02*
X5311482Y-10418884D01*
X5311482Y-10418884D02*
X5292434Y-10418884D01*
X5292434Y-10418884D02*
X5273387Y-10409360D01*
X5273387Y-10409360D02*
X5263863Y-10399836D01*
X5263863Y-10399836D02*
X5254339Y-10380789D01*
X5254339Y-10380789D02*
X5244815Y-10342693D01*
X5244815Y-10342693D02*
X5244815Y-10295074D01*
X5244815Y-10295074D02*
X5254339Y-10256979D01*
X5254339Y-10256979D02*
X5263863Y-10237931D01*
X5263863Y-10237931D02*
X5273387Y-10228408D01*
X5273387Y-10228408D02*
X5292434Y-10218884D01*
X5444815Y-10399836D02*
X5454339Y-10409360D01*
X5454339Y-10409360D02*
X5444815Y-10418884D01*
X5444815Y-10418884D02*
X5435291Y-10409360D01*
X5435291Y-10409360D02*
X5444815Y-10399836D01*
X5444815Y-10399836D02*
X5444815Y-10418884D01*
X5578148Y-10218884D02*
X5597196Y-10218884D01*
X5597196Y-10218884D02*
X5616244Y-10228408D01*
X5616244Y-10228408D02*
X5625767Y-10237931D01*
X5625767Y-10237931D02*
X5635291Y-10256979D01*
X5635291Y-10256979D02*
X5644815Y-10295074D01*
X5644815Y-10295074D02*
X5644815Y-10342693D01*
X5644815Y-10342693D02*
X5635291Y-10380789D01*
X5635291Y-10380789D02*
X5625767Y-10399836D01*
X5625767Y-10399836D02*
X5616244Y-10409360D01*
X5616244Y-10409360D02*
X5597196Y-10418884D01*
X5597196Y-10418884D02*
X5578148Y-10418884D01*
X5578148Y-10418884D02*
X5559101Y-10409360D01*
X5559101Y-10409360D02*
X5549577Y-10399836D01*
X5549577Y-10399836D02*
X5540053Y-10380789D01*
X5540053Y-10380789D02*
X5530529Y-10342693D01*
X5530529Y-10342693D02*
X5530529Y-10295074D01*
X5530529Y-10295074D02*
X5540053Y-10256979D01*
X5540053Y-10256979D02*
X5549577Y-10237931D01*
X5549577Y-10237931D02*
X5559101Y-10228408D01*
X5559101Y-10228408D02*
X5578148Y-10218884D01*
X5835291Y-10418884D02*
X5721006Y-10418884D01*
X5778148Y-10418884D02*
X5778148Y-10218884D01*
X5778148Y-10218884D02*
X5759101Y-10247455D01*
X5759101Y-10247455D02*
X5740053Y-10266503D01*
X5740053Y-10266503D02*
X5721006Y-10276027D01*
X6016244Y-10218884D02*
X5921006Y-10218884D01*
X5921006Y-10218884D02*
X5911482Y-10314122D01*
X5911482Y-10314122D02*
X5921006Y-10304598D01*
X5921006Y-10304598D02*
X5940053Y-10295074D01*
X5940053Y-10295074D02*
X5987672Y-10295074D01*
X5987672Y-10295074D02*
X6006720Y-10304598D01*
X6006720Y-10304598D02*
X6016244Y-10314122D01*
X6016244Y-10314122D02*
X6025767Y-10333170D01*
X6025767Y-10333170D02*
X6025767Y-10380789D01*
X6025767Y-10380789D02*
X6016244Y-10399836D01*
X6016244Y-10399836D02*
X6006720Y-10409360D01*
X6006720Y-10409360D02*
X5987672Y-10418884D01*
X5987672Y-10418884D02*
X5940053Y-10418884D01*
X5940053Y-10418884D02*
X5921006Y-10409360D01*
X5921006Y-10409360D02*
X5911482Y-10399836D01*
X6092434Y-10218884D02*
X6225767Y-10218884D01*
X6225767Y-10218884D02*
X6140053Y-10418884D01*
X6292434Y-10218884D02*
X6292434Y-10256979D01*
X6368625Y-10218884D02*
X6368625Y-10256979D01*
X6663863Y-10495074D02*
X6654339Y-10485550D01*
X6654339Y-10485550D02*
X6635291Y-10456979D01*
X6635291Y-10456979D02*
X6625768Y-10437931D01*
X6625768Y-10437931D02*
X6616244Y-10409360D01*
X6616244Y-10409360D02*
X6606720Y-10361741D01*
X6606720Y-10361741D02*
X6606720Y-10323646D01*
X6606720Y-10323646D02*
X6616244Y-10276027D01*
X6616244Y-10276027D02*
X6625768Y-10247455D01*
X6625768Y-10247455D02*
X6635291Y-10228408D01*
X6635291Y-10228408D02*
X6654339Y-10199836D01*
X6654339Y-10199836D02*
X6663863Y-10190312D01*
X6844815Y-10418884D02*
X6730529Y-10418884D01*
X6787672Y-10418884D02*
X6787672Y-10218884D01*
X6787672Y-10218884D02*
X6768625Y-10247455D01*
X6768625Y-10247455D02*
X6749577Y-10266503D01*
X6749577Y-10266503D02*
X6730529Y-10276027D01*
X6940053Y-10418884D02*
X6978148Y-10418884D01*
X6978148Y-10418884D02*
X6997196Y-10409360D01*
X6997196Y-10409360D02*
X7006720Y-10399836D01*
X7006720Y-10399836D02*
X7025768Y-10371265D01*
X7025768Y-10371265D02*
X7035291Y-10333170D01*
X7035291Y-10333170D02*
X7035291Y-10256979D01*
X7035291Y-10256979D02*
X7025768Y-10237931D01*
X7025768Y-10237931D02*
X7016244Y-10228408D01*
X7016244Y-10228408D02*
X6997196Y-10218884D01*
X6997196Y-10218884D02*
X6959101Y-10218884D01*
X6959101Y-10218884D02*
X6940053Y-10228408D01*
X6940053Y-10228408D02*
X6930529Y-10237931D01*
X6930529Y-10237931D02*
X6921006Y-10256979D01*
X6921006Y-10256979D02*
X6921006Y-10304598D01*
X6921006Y-10304598D02*
X6930529Y-10323646D01*
X6930529Y-10323646D02*
X6940053Y-10333170D01*
X6940053Y-10333170D02*
X6959101Y-10342693D01*
X6959101Y-10342693D02*
X6997196Y-10342693D01*
X6997196Y-10342693D02*
X7016244Y-10333170D01*
X7016244Y-10333170D02*
X7025768Y-10323646D01*
X7025768Y-10323646D02*
X7035291Y-10304598D01*
X7225768Y-10418884D02*
X7111482Y-10418884D01*
X7168625Y-10418884D02*
X7168625Y-10218884D01*
X7168625Y-10218884D02*
X7149577Y-10247455D01*
X7149577Y-10247455D02*
X7130529Y-10266503D01*
X7130529Y-10266503D02*
X7111482Y-10276027D01*
X7463863Y-10418884D02*
X7463863Y-10218884D01*
X7549577Y-10418884D02*
X7549577Y-10314122D01*
X7549577Y-10314122D02*
X7540053Y-10295074D01*
X7540053Y-10295074D02*
X7521006Y-10285550D01*
X7521006Y-10285550D02*
X7492434Y-10285550D01*
X7492434Y-10285550D02*
X7473387Y-10295074D01*
X7473387Y-10295074D02*
X7463863Y-10304598D01*
X7673387Y-10418884D02*
X7654339Y-10409360D01*
X7654339Y-10409360D02*
X7644815Y-10399836D01*
X7644815Y-10399836D02*
X7635291Y-10380789D01*
X7635291Y-10380789D02*
X7635291Y-10323646D01*
X7635291Y-10323646D02*
X7644815Y-10304598D01*
X7644815Y-10304598D02*
X7654339Y-10295074D01*
X7654339Y-10295074D02*
X7673387Y-10285550D01*
X7673387Y-10285550D02*
X7701958Y-10285550D01*
X7701958Y-10285550D02*
X7721006Y-10295074D01*
X7721006Y-10295074D02*
X7730530Y-10304598D01*
X7730530Y-10304598D02*
X7740053Y-10323646D01*
X7740053Y-10323646D02*
X7740053Y-10380789D01*
X7740053Y-10380789D02*
X7730530Y-10399836D01*
X7730530Y-10399836D02*
X7721006Y-10409360D01*
X7721006Y-10409360D02*
X7701958Y-10418884D01*
X7701958Y-10418884D02*
X7673387Y-10418884D01*
X7854339Y-10418884D02*
X7835291Y-10409360D01*
X7835291Y-10409360D02*
X7825768Y-10390312D01*
X7825768Y-10390312D02*
X7825768Y-10218884D01*
X8006720Y-10409360D02*
X7987672Y-10418884D01*
X7987672Y-10418884D02*
X7949577Y-10418884D01*
X7949577Y-10418884D02*
X7930530Y-10409360D01*
X7930530Y-10409360D02*
X7921006Y-10390312D01*
X7921006Y-10390312D02*
X7921006Y-10314122D01*
X7921006Y-10314122D02*
X7930530Y-10295074D01*
X7930530Y-10295074D02*
X7949577Y-10285550D01*
X7949577Y-10285550D02*
X7987672Y-10285550D01*
X7987672Y-10285550D02*
X8006720Y-10295074D01*
X8006720Y-10295074D02*
X8016244Y-10314122D01*
X8016244Y-10314122D02*
X8016244Y-10333170D01*
X8016244Y-10333170D02*
X7921006Y-10352217D01*
X8092434Y-10409360D02*
X8111482Y-10418884D01*
X8111482Y-10418884D02*
X8149577Y-10418884D01*
X8149577Y-10418884D02*
X8168625Y-10409360D01*
X8168625Y-10409360D02*
X8178149Y-10390312D01*
X8178149Y-10390312D02*
X8178149Y-10380789D01*
X8178149Y-10380789D02*
X8168625Y-10361741D01*
X8168625Y-10361741D02*
X8149577Y-10352217D01*
X8149577Y-10352217D02*
X8121006Y-10352217D01*
X8121006Y-10352217D02*
X8101958Y-10342693D01*
X8101958Y-10342693D02*
X8092434Y-10323646D01*
X8092434Y-10323646D02*
X8092434Y-10314122D01*
X8092434Y-10314122D02*
X8101958Y-10295074D01*
X8101958Y-10295074D02*
X8121006Y-10285550D01*
X8121006Y-10285550D02*
X8149577Y-10285550D01*
X8149577Y-10285550D02*
X8168625Y-10295074D01*
X8244815Y-10495074D02*
X8254339Y-10485550D01*
X8254339Y-10485550D02*
X8273387Y-10456979D01*
X8273387Y-10456979D02*
X8282911Y-10437931D01*
X8282911Y-10437931D02*
X8292434Y-10409360D01*
X8292434Y-10409360D02*
X8301958Y-10361741D01*
X8301958Y-10361741D02*
X8301958Y-10323646D01*
X8301958Y-10323646D02*
X8292434Y-10276027D01*
X8292434Y-10276027D02*
X8282911Y-10247455D01*
X8282911Y-10247455D02*
X8273387Y-10228408D01*
X8273387Y-10228408D02*
X8254339Y-10199836D01*
X8254339Y-10199836D02*
X8244815Y-10190312D01*
D12*
X3088800Y-10591400D02*
G75*
G03*
X3088800Y-10591400I-50000J0D01*
G01*
D10*
X3454339Y-10682884D02*
X3340053Y-10682884D01*
X3397196Y-10682884D02*
X3397196Y-10482884D01*
X3397196Y-10482884D02*
X3378148Y-10511455D01*
X3378148Y-10511455D02*
X3359101Y-10530503D01*
X3359101Y-10530503D02*
X3340053Y-10540027D01*
X3540053Y-10663836D02*
X3549577Y-10673360D01*
X3549577Y-10673360D02*
X3540053Y-10682884D01*
X3540053Y-10682884D02*
X3530529Y-10673360D01*
X3530529Y-10673360D02*
X3540053Y-10663836D01*
X3540053Y-10663836D02*
X3540053Y-10682884D01*
X3673386Y-10482884D02*
X3692434Y-10482884D01*
X3692434Y-10482884D02*
X3711482Y-10492408D01*
X3711482Y-10492408D02*
X3721005Y-10501931D01*
X3721005Y-10501931D02*
X3730529Y-10520979D01*
X3730529Y-10520979D02*
X3740053Y-10559074D01*
X3740053Y-10559074D02*
X3740053Y-10606693D01*
X3740053Y-10606693D02*
X3730529Y-10644789D01*
X3730529Y-10644789D02*
X3721005Y-10663836D01*
X3721005Y-10663836D02*
X3711482Y-10673360D01*
X3711482Y-10673360D02*
X3692434Y-10682884D01*
X3692434Y-10682884D02*
X3673386Y-10682884D01*
X3673386Y-10682884D02*
X3654339Y-10673360D01*
X3654339Y-10673360D02*
X3644815Y-10663836D01*
X3644815Y-10663836D02*
X3635291Y-10644789D01*
X3635291Y-10644789D02*
X3625767Y-10606693D01*
X3625767Y-10606693D02*
X3625767Y-10559074D01*
X3625767Y-10559074D02*
X3635291Y-10520979D01*
X3635291Y-10520979D02*
X3644815Y-10501931D01*
X3644815Y-10501931D02*
X3654339Y-10492408D01*
X3654339Y-10492408D02*
X3673386Y-10482884D01*
X3863862Y-10482884D02*
X3882910Y-10482884D01*
X3882910Y-10482884D02*
X3901958Y-10492408D01*
X3901958Y-10492408D02*
X3911482Y-10501931D01*
X3911482Y-10501931D02*
X3921005Y-10520979D01*
X3921005Y-10520979D02*
X3930529Y-10559074D01*
X3930529Y-10559074D02*
X3930529Y-10606693D01*
X3930529Y-10606693D02*
X3921005Y-10644789D01*
X3921005Y-10644789D02*
X3911482Y-10663836D01*
X3911482Y-10663836D02*
X3901958Y-10673360D01*
X3901958Y-10673360D02*
X3882910Y-10682884D01*
X3882910Y-10682884D02*
X3863862Y-10682884D01*
X3863862Y-10682884D02*
X3844815Y-10673360D01*
X3844815Y-10673360D02*
X3835291Y-10663836D01*
X3835291Y-10663836D02*
X3825767Y-10644789D01*
X3825767Y-10644789D02*
X3816243Y-10606693D01*
X3816243Y-10606693D02*
X3816243Y-10559074D01*
X3816243Y-10559074D02*
X3825767Y-10520979D01*
X3825767Y-10520979D02*
X3835291Y-10501931D01*
X3835291Y-10501931D02*
X3844815Y-10492408D01*
X3844815Y-10492408D02*
X3863862Y-10482884D01*
X4054339Y-10482884D02*
X4073386Y-10482884D01*
X4073386Y-10482884D02*
X4092434Y-10492408D01*
X4092434Y-10492408D02*
X4101958Y-10501931D01*
X4101958Y-10501931D02*
X4111482Y-10520979D01*
X4111482Y-10520979D02*
X4121005Y-10559074D01*
X4121005Y-10559074D02*
X4121005Y-10606693D01*
X4121005Y-10606693D02*
X4111482Y-10644789D01*
X4111482Y-10644789D02*
X4101958Y-10663836D01*
X4101958Y-10663836D02*
X4092434Y-10673360D01*
X4092434Y-10673360D02*
X4073386Y-10682884D01*
X4073386Y-10682884D02*
X4054339Y-10682884D01*
X4054339Y-10682884D02*
X4035291Y-10673360D01*
X4035291Y-10673360D02*
X4025767Y-10663836D01*
X4025767Y-10663836D02*
X4016243Y-10644789D01*
X4016243Y-10644789D02*
X4006720Y-10606693D01*
X4006720Y-10606693D02*
X4006720Y-10559074D01*
X4006720Y-10559074D02*
X4016243Y-10520979D01*
X4016243Y-10520979D02*
X4025767Y-10501931D01*
X4025767Y-10501931D02*
X4035291Y-10492408D01*
X4035291Y-10492408D02*
X4054339Y-10482884D01*
X4206720Y-10682884D02*
X4206720Y-10549550D01*
X4206720Y-10568598D02*
X4216244Y-10559074D01*
X4216244Y-10559074D02*
X4235291Y-10549550D01*
X4235291Y-10549550D02*
X4263863Y-10549550D01*
X4263863Y-10549550D02*
X4282910Y-10559074D01*
X4282910Y-10559074D02*
X4292434Y-10578122D01*
X4292434Y-10578122D02*
X4292434Y-10682884D01*
X4292434Y-10578122D02*
X4301958Y-10559074D01*
X4301958Y-10559074D02*
X4321005Y-10549550D01*
X4321005Y-10549550D02*
X4349577Y-10549550D01*
X4349577Y-10549550D02*
X4368625Y-10559074D01*
X4368625Y-10559074D02*
X4378148Y-10578122D01*
X4378148Y-10578122D02*
X4378148Y-10682884D01*
X4473386Y-10682884D02*
X4473386Y-10549550D01*
X4473386Y-10568598D02*
X4482910Y-10559074D01*
X4482910Y-10559074D02*
X4501958Y-10549550D01*
X4501958Y-10549550D02*
X4530529Y-10549550D01*
X4530529Y-10549550D02*
X4549577Y-10559074D01*
X4549577Y-10559074D02*
X4559101Y-10578122D01*
X4559101Y-10578122D02*
X4559101Y-10682884D01*
X4559101Y-10578122D02*
X4568625Y-10559074D01*
X4568625Y-10559074D02*
X4587672Y-10549550D01*
X4587672Y-10549550D02*
X4616244Y-10549550D01*
X4616244Y-10549550D02*
X4635291Y-10559074D01*
X4635291Y-10559074D02*
X4644815Y-10578122D01*
X4644815Y-10578122D02*
X4644815Y-10682884D01*
X5035291Y-10473360D02*
X4863863Y-10730503D01*
X5292434Y-10482884D02*
X5311482Y-10482884D01*
X5311482Y-10482884D02*
X5330529Y-10492408D01*
X5330529Y-10492408D02*
X5340053Y-10501931D01*
X5340053Y-10501931D02*
X5349577Y-10520979D01*
X5349577Y-10520979D02*
X5359101Y-10559074D01*
X5359101Y-10559074D02*
X5359101Y-10606693D01*
X5359101Y-10606693D02*
X5349577Y-10644789D01*
X5349577Y-10644789D02*
X5340053Y-10663836D01*
X5340053Y-10663836D02*
X5330529Y-10673360D01*
X5330529Y-10673360D02*
X5311482Y-10682884D01*
X5311482Y-10682884D02*
X5292434Y-10682884D01*
X5292434Y-10682884D02*
X5273387Y-10673360D01*
X5273387Y-10673360D02*
X5263863Y-10663836D01*
X5263863Y-10663836D02*
X5254339Y-10644789D01*
X5254339Y-10644789D02*
X5244815Y-10606693D01*
X5244815Y-10606693D02*
X5244815Y-10559074D01*
X5244815Y-10559074D02*
X5254339Y-10520979D01*
X5254339Y-10520979D02*
X5263863Y-10501931D01*
X5263863Y-10501931D02*
X5273387Y-10492408D01*
X5273387Y-10492408D02*
X5292434Y-10482884D01*
X5444815Y-10663836D02*
X5454339Y-10673360D01*
X5454339Y-10673360D02*
X5444815Y-10682884D01*
X5444815Y-10682884D02*
X5435291Y-10673360D01*
X5435291Y-10673360D02*
X5444815Y-10663836D01*
X5444815Y-10663836D02*
X5444815Y-10682884D01*
X5578148Y-10482884D02*
X5597196Y-10482884D01*
X5597196Y-10482884D02*
X5616244Y-10492408D01*
X5616244Y-10492408D02*
X5625767Y-10501931D01*
X5625767Y-10501931D02*
X5635291Y-10520979D01*
X5635291Y-10520979D02*
X5644815Y-10559074D01*
X5644815Y-10559074D02*
X5644815Y-10606693D01*
X5644815Y-10606693D02*
X5635291Y-10644789D01*
X5635291Y-10644789D02*
X5625767Y-10663836D01*
X5625767Y-10663836D02*
X5616244Y-10673360D01*
X5616244Y-10673360D02*
X5597196Y-10682884D01*
X5597196Y-10682884D02*
X5578148Y-10682884D01*
X5578148Y-10682884D02*
X5559101Y-10673360D01*
X5559101Y-10673360D02*
X5549577Y-10663836D01*
X5549577Y-10663836D02*
X5540053Y-10644789D01*
X5540053Y-10644789D02*
X5530529Y-10606693D01*
X5530529Y-10606693D02*
X5530529Y-10559074D01*
X5530529Y-10559074D02*
X5540053Y-10520979D01*
X5540053Y-10520979D02*
X5549577Y-10501931D01*
X5549577Y-10501931D02*
X5559101Y-10492408D01*
X5559101Y-10492408D02*
X5578148Y-10482884D01*
X5711482Y-10482884D02*
X5835291Y-10482884D01*
X5835291Y-10482884D02*
X5768625Y-10559074D01*
X5768625Y-10559074D02*
X5797196Y-10559074D01*
X5797196Y-10559074D02*
X5816244Y-10568598D01*
X5816244Y-10568598D02*
X5825767Y-10578122D01*
X5825767Y-10578122D02*
X5835291Y-10597170D01*
X5835291Y-10597170D02*
X5835291Y-10644789D01*
X5835291Y-10644789D02*
X5825767Y-10663836D01*
X5825767Y-10663836D02*
X5816244Y-10673360D01*
X5816244Y-10673360D02*
X5797196Y-10682884D01*
X5797196Y-10682884D02*
X5740053Y-10682884D01*
X5740053Y-10682884D02*
X5721006Y-10673360D01*
X5721006Y-10673360D02*
X5711482Y-10663836D01*
X5930529Y-10682884D02*
X5968625Y-10682884D01*
X5968625Y-10682884D02*
X5987672Y-10673360D01*
X5987672Y-10673360D02*
X5997196Y-10663836D01*
X5997196Y-10663836D02*
X6016244Y-10635265D01*
X6016244Y-10635265D02*
X6025767Y-10597170D01*
X6025767Y-10597170D02*
X6025767Y-10520979D01*
X6025767Y-10520979D02*
X6016244Y-10501931D01*
X6016244Y-10501931D02*
X6006720Y-10492408D01*
X6006720Y-10492408D02*
X5987672Y-10482884D01*
X5987672Y-10482884D02*
X5949577Y-10482884D01*
X5949577Y-10482884D02*
X5930529Y-10492408D01*
X5930529Y-10492408D02*
X5921006Y-10501931D01*
X5921006Y-10501931D02*
X5911482Y-10520979D01*
X5911482Y-10520979D02*
X5911482Y-10568598D01*
X5911482Y-10568598D02*
X5921006Y-10587646D01*
X5921006Y-10587646D02*
X5930529Y-10597170D01*
X5930529Y-10597170D02*
X5949577Y-10606693D01*
X5949577Y-10606693D02*
X5987672Y-10606693D01*
X5987672Y-10606693D02*
X6006720Y-10597170D01*
X6006720Y-10597170D02*
X6016244Y-10587646D01*
X6016244Y-10587646D02*
X6025767Y-10568598D01*
X6197196Y-10549550D02*
X6197196Y-10682884D01*
X6149577Y-10473360D02*
X6101958Y-10616217D01*
X6101958Y-10616217D02*
X6225767Y-10616217D01*
X6292434Y-10482884D02*
X6292434Y-10520979D01*
X6368625Y-10482884D02*
X6368625Y-10520979D01*
X6663863Y-10759074D02*
X6654339Y-10749550D01*
X6654339Y-10749550D02*
X6635291Y-10720979D01*
X6635291Y-10720979D02*
X6625768Y-10701931D01*
X6625768Y-10701931D02*
X6616244Y-10673360D01*
X6616244Y-10673360D02*
X6606720Y-10625741D01*
X6606720Y-10625741D02*
X6606720Y-10587646D01*
X6606720Y-10587646D02*
X6616244Y-10540027D01*
X6616244Y-10540027D02*
X6625768Y-10511455D01*
X6625768Y-10511455D02*
X6635291Y-10492408D01*
X6635291Y-10492408D02*
X6654339Y-10463836D01*
X6654339Y-10463836D02*
X6663863Y-10454312D01*
X6844815Y-10682884D02*
X6730529Y-10682884D01*
X6787672Y-10682884D02*
X6787672Y-10482884D01*
X6787672Y-10482884D02*
X6768625Y-10511455D01*
X6768625Y-10511455D02*
X6749577Y-10530503D01*
X6749577Y-10530503D02*
X6730529Y-10540027D01*
X6940053Y-10682884D02*
X6978148Y-10682884D01*
X6978148Y-10682884D02*
X6997196Y-10673360D01*
X6997196Y-10673360D02*
X7006720Y-10663836D01*
X7006720Y-10663836D02*
X7025768Y-10635265D01*
X7025768Y-10635265D02*
X7035291Y-10597170D01*
X7035291Y-10597170D02*
X7035291Y-10520979D01*
X7035291Y-10520979D02*
X7025768Y-10501931D01*
X7025768Y-10501931D02*
X7016244Y-10492408D01*
X7016244Y-10492408D02*
X6997196Y-10482884D01*
X6997196Y-10482884D02*
X6959101Y-10482884D01*
X6959101Y-10482884D02*
X6940053Y-10492408D01*
X6940053Y-10492408D02*
X6930529Y-10501931D01*
X6930529Y-10501931D02*
X6921006Y-10520979D01*
X6921006Y-10520979D02*
X6921006Y-10568598D01*
X6921006Y-10568598D02*
X6930529Y-10587646D01*
X6930529Y-10587646D02*
X6940053Y-10597170D01*
X6940053Y-10597170D02*
X6959101Y-10606693D01*
X6959101Y-10606693D02*
X6997196Y-10606693D01*
X6997196Y-10606693D02*
X7016244Y-10597170D01*
X7016244Y-10597170D02*
X7025768Y-10587646D01*
X7025768Y-10587646D02*
X7035291Y-10568598D01*
X7273387Y-10682884D02*
X7273387Y-10482884D01*
X7359101Y-10682884D02*
X7359101Y-10578122D01*
X7359101Y-10578122D02*
X7349577Y-10559074D01*
X7349577Y-10559074D02*
X7330530Y-10549550D01*
X7330530Y-10549550D02*
X7301958Y-10549550D01*
X7301958Y-10549550D02*
X7282910Y-10559074D01*
X7282910Y-10559074D02*
X7273387Y-10568598D01*
X7482910Y-10682884D02*
X7463863Y-10673360D01*
X7463863Y-10673360D02*
X7454339Y-10663836D01*
X7454339Y-10663836D02*
X7444815Y-10644789D01*
X7444815Y-10644789D02*
X7444815Y-10587646D01*
X7444815Y-10587646D02*
X7454339Y-10568598D01*
X7454339Y-10568598D02*
X7463863Y-10559074D01*
X7463863Y-10559074D02*
X7482910Y-10549550D01*
X7482910Y-10549550D02*
X7511482Y-10549550D01*
X7511482Y-10549550D02*
X7530530Y-10559074D01*
X7530530Y-10559074D02*
X7540053Y-10568598D01*
X7540053Y-10568598D02*
X7549577Y-10587646D01*
X7549577Y-10587646D02*
X7549577Y-10644789D01*
X7549577Y-10644789D02*
X7540053Y-10663836D01*
X7540053Y-10663836D02*
X7530530Y-10673360D01*
X7530530Y-10673360D02*
X7511482Y-10682884D01*
X7511482Y-10682884D02*
X7482910Y-10682884D01*
X7663863Y-10682884D02*
X7644815Y-10673360D01*
X7644815Y-10673360D02*
X7635291Y-10654312D01*
X7635291Y-10654312D02*
X7635291Y-10482884D01*
X7816244Y-10673360D02*
X7797196Y-10682884D01*
X7797196Y-10682884D02*
X7759101Y-10682884D01*
X7759101Y-10682884D02*
X7740053Y-10673360D01*
X7740053Y-10673360D02*
X7730530Y-10654312D01*
X7730530Y-10654312D02*
X7730530Y-10578122D01*
X7730530Y-10578122D02*
X7740053Y-10559074D01*
X7740053Y-10559074D02*
X7759101Y-10549550D01*
X7759101Y-10549550D02*
X7797196Y-10549550D01*
X7797196Y-10549550D02*
X7816244Y-10559074D01*
X7816244Y-10559074D02*
X7825768Y-10578122D01*
X7825768Y-10578122D02*
X7825768Y-10597170D01*
X7825768Y-10597170D02*
X7730530Y-10616217D01*
X7901958Y-10673360D02*
X7921006Y-10682884D01*
X7921006Y-10682884D02*
X7959101Y-10682884D01*
X7959101Y-10682884D02*
X7978149Y-10673360D01*
X7978149Y-10673360D02*
X7987672Y-10654312D01*
X7987672Y-10654312D02*
X7987672Y-10644789D01*
X7987672Y-10644789D02*
X7978149Y-10625741D01*
X7978149Y-10625741D02*
X7959101Y-10616217D01*
X7959101Y-10616217D02*
X7930530Y-10616217D01*
X7930530Y-10616217D02*
X7911482Y-10606693D01*
X7911482Y-10606693D02*
X7901958Y-10587646D01*
X7901958Y-10587646D02*
X7901958Y-10578122D01*
X7901958Y-10578122D02*
X7911482Y-10559074D01*
X7911482Y-10559074D02*
X7930530Y-10549550D01*
X7930530Y-10549550D02*
X7959101Y-10549550D01*
X7959101Y-10549550D02*
X7978149Y-10559074D01*
X8054339Y-10759074D02*
X8063863Y-10749550D01*
X8063863Y-10749550D02*
X8082911Y-10720979D01*
X8082911Y-10720979D02*
X8092434Y-10701931D01*
X8092434Y-10701931D02*
X8101958Y-10673360D01*
X8101958Y-10673360D02*
X8111482Y-10625741D01*
X8111482Y-10625741D02*
X8111482Y-10587646D01*
X8111482Y-10587646D02*
X8101958Y-10540027D01*
X8101958Y-10540027D02*
X8092434Y-10511455D01*
X8092434Y-10511455D02*
X8082911Y-10492408D01*
X8082911Y-10492408D02*
X8063863Y-10463836D01*
X8063863Y-10463836D02*
X8054339Y-10454312D01*
D13*
X3028800Y-10795400D02*
X3028800Y-10915400D01*
X2968800Y-10855400D02*
X3088800Y-10855400D01*
D10*
X3454339Y-10946884D02*
X3340053Y-10946884D01*
X3397196Y-10946884D02*
X3397196Y-10746884D01*
X3397196Y-10746884D02*
X3378148Y-10775455D01*
X3378148Y-10775455D02*
X3359101Y-10794503D01*
X3359101Y-10794503D02*
X3340053Y-10804027D01*
X3540053Y-10927836D02*
X3549577Y-10937360D01*
X3549577Y-10937360D02*
X3540053Y-10946884D01*
X3540053Y-10946884D02*
X3530529Y-10937360D01*
X3530529Y-10937360D02*
X3540053Y-10927836D01*
X3540053Y-10927836D02*
X3540053Y-10946884D01*
X3625767Y-10765931D02*
X3635291Y-10756408D01*
X3635291Y-10756408D02*
X3654339Y-10746884D01*
X3654339Y-10746884D02*
X3701958Y-10746884D01*
X3701958Y-10746884D02*
X3721005Y-10756408D01*
X3721005Y-10756408D02*
X3730529Y-10765931D01*
X3730529Y-10765931D02*
X3740053Y-10784979D01*
X3740053Y-10784979D02*
X3740053Y-10804027D01*
X3740053Y-10804027D02*
X3730529Y-10832598D01*
X3730529Y-10832598D02*
X3616243Y-10946884D01*
X3616243Y-10946884D02*
X3740053Y-10946884D01*
X3863862Y-10746884D02*
X3882910Y-10746884D01*
X3882910Y-10746884D02*
X3901958Y-10756408D01*
X3901958Y-10756408D02*
X3911482Y-10765931D01*
X3911482Y-10765931D02*
X3921005Y-10784979D01*
X3921005Y-10784979D02*
X3930529Y-10823074D01*
X3930529Y-10823074D02*
X3930529Y-10870693D01*
X3930529Y-10870693D02*
X3921005Y-10908789D01*
X3921005Y-10908789D02*
X3911482Y-10927836D01*
X3911482Y-10927836D02*
X3901958Y-10937360D01*
X3901958Y-10937360D02*
X3882910Y-10946884D01*
X3882910Y-10946884D02*
X3863862Y-10946884D01*
X3863862Y-10946884D02*
X3844815Y-10937360D01*
X3844815Y-10937360D02*
X3835291Y-10927836D01*
X3835291Y-10927836D02*
X3825767Y-10908789D01*
X3825767Y-10908789D02*
X3816243Y-10870693D01*
X3816243Y-10870693D02*
X3816243Y-10823074D01*
X3816243Y-10823074D02*
X3825767Y-10784979D01*
X3825767Y-10784979D02*
X3835291Y-10765931D01*
X3835291Y-10765931D02*
X3844815Y-10756408D01*
X3844815Y-10756408D02*
X3863862Y-10746884D01*
X4054339Y-10746884D02*
X4073386Y-10746884D01*
X4073386Y-10746884D02*
X4092434Y-10756408D01*
X4092434Y-10756408D02*
X4101958Y-10765931D01*
X4101958Y-10765931D02*
X4111482Y-10784979D01*
X4111482Y-10784979D02*
X4121005Y-10823074D01*
X4121005Y-10823074D02*
X4121005Y-10870693D01*
X4121005Y-10870693D02*
X4111482Y-10908789D01*
X4111482Y-10908789D02*
X4101958Y-10927836D01*
X4101958Y-10927836D02*
X4092434Y-10937360D01*
X4092434Y-10937360D02*
X4073386Y-10946884D01*
X4073386Y-10946884D02*
X4054339Y-10946884D01*
X4054339Y-10946884D02*
X4035291Y-10937360D01*
X4035291Y-10937360D02*
X4025767Y-10927836D01*
X4025767Y-10927836D02*
X4016243Y-10908789D01*
X4016243Y-10908789D02*
X4006720Y-10870693D01*
X4006720Y-10870693D02*
X4006720Y-10823074D01*
X4006720Y-10823074D02*
X4016243Y-10784979D01*
X4016243Y-10784979D02*
X4025767Y-10765931D01*
X4025767Y-10765931D02*
X4035291Y-10756408D01*
X4035291Y-10756408D02*
X4054339Y-10746884D01*
X4206720Y-10946884D02*
X4206720Y-10813550D01*
X4206720Y-10832598D02*
X4216244Y-10823074D01*
X4216244Y-10823074D02*
X4235291Y-10813550D01*
X4235291Y-10813550D02*
X4263863Y-10813550D01*
X4263863Y-10813550D02*
X4282910Y-10823074D01*
X4282910Y-10823074D02*
X4292434Y-10842122D01*
X4292434Y-10842122D02*
X4292434Y-10946884D01*
X4292434Y-10842122D02*
X4301958Y-10823074D01*
X4301958Y-10823074D02*
X4321005Y-10813550D01*
X4321005Y-10813550D02*
X4349577Y-10813550D01*
X4349577Y-10813550D02*
X4368625Y-10823074D01*
X4368625Y-10823074D02*
X4378148Y-10842122D01*
X4378148Y-10842122D02*
X4378148Y-10946884D01*
X4473386Y-10946884D02*
X4473386Y-10813550D01*
X4473386Y-10832598D02*
X4482910Y-10823074D01*
X4482910Y-10823074D02*
X4501958Y-10813550D01*
X4501958Y-10813550D02*
X4530529Y-10813550D01*
X4530529Y-10813550D02*
X4549577Y-10823074D01*
X4549577Y-10823074D02*
X4559101Y-10842122D01*
X4559101Y-10842122D02*
X4559101Y-10946884D01*
X4559101Y-10842122D02*
X4568625Y-10823074D01*
X4568625Y-10823074D02*
X4587672Y-10813550D01*
X4587672Y-10813550D02*
X4616244Y-10813550D01*
X4616244Y-10813550D02*
X4635291Y-10823074D01*
X4635291Y-10823074D02*
X4644815Y-10842122D01*
X4644815Y-10842122D02*
X4644815Y-10946884D01*
X5035291Y-10737360D02*
X4863863Y-10994503D01*
X5292434Y-10746884D02*
X5311482Y-10746884D01*
X5311482Y-10746884D02*
X5330529Y-10756408D01*
X5330529Y-10756408D02*
X5340053Y-10765931D01*
X5340053Y-10765931D02*
X5349577Y-10784979D01*
X5349577Y-10784979D02*
X5359101Y-10823074D01*
X5359101Y-10823074D02*
X5359101Y-10870693D01*
X5359101Y-10870693D02*
X5349577Y-10908789D01*
X5349577Y-10908789D02*
X5340053Y-10927836D01*
X5340053Y-10927836D02*
X5330529Y-10937360D01*
X5330529Y-10937360D02*
X5311482Y-10946884D01*
X5311482Y-10946884D02*
X5292434Y-10946884D01*
X5292434Y-10946884D02*
X5273387Y-10937360D01*
X5273387Y-10937360D02*
X5263863Y-10927836D01*
X5263863Y-10927836D02*
X5254339Y-10908789D01*
X5254339Y-10908789D02*
X5244815Y-10870693D01*
X5244815Y-10870693D02*
X5244815Y-10823074D01*
X5244815Y-10823074D02*
X5254339Y-10784979D01*
X5254339Y-10784979D02*
X5263863Y-10765931D01*
X5263863Y-10765931D02*
X5273387Y-10756408D01*
X5273387Y-10756408D02*
X5292434Y-10746884D01*
X5444815Y-10927836D02*
X5454339Y-10937360D01*
X5454339Y-10937360D02*
X5444815Y-10946884D01*
X5444815Y-10946884D02*
X5435291Y-10937360D01*
X5435291Y-10937360D02*
X5444815Y-10927836D01*
X5444815Y-10927836D02*
X5444815Y-10946884D01*
X5578148Y-10746884D02*
X5597196Y-10746884D01*
X5597196Y-10746884D02*
X5616244Y-10756408D01*
X5616244Y-10756408D02*
X5625767Y-10765931D01*
X5625767Y-10765931D02*
X5635291Y-10784979D01*
X5635291Y-10784979D02*
X5644815Y-10823074D01*
X5644815Y-10823074D02*
X5644815Y-10870693D01*
X5644815Y-10870693D02*
X5635291Y-10908789D01*
X5635291Y-10908789D02*
X5625767Y-10927836D01*
X5625767Y-10927836D02*
X5616244Y-10937360D01*
X5616244Y-10937360D02*
X5597196Y-10946884D01*
X5597196Y-10946884D02*
X5578148Y-10946884D01*
X5578148Y-10946884D02*
X5559101Y-10937360D01*
X5559101Y-10937360D02*
X5549577Y-10927836D01*
X5549577Y-10927836D02*
X5540053Y-10908789D01*
X5540053Y-10908789D02*
X5530529Y-10870693D01*
X5530529Y-10870693D02*
X5530529Y-10823074D01*
X5530529Y-10823074D02*
X5540053Y-10784979D01*
X5540053Y-10784979D02*
X5549577Y-10765931D01*
X5549577Y-10765931D02*
X5559101Y-10756408D01*
X5559101Y-10756408D02*
X5578148Y-10746884D01*
X5816244Y-10813550D02*
X5816244Y-10946884D01*
X5768625Y-10737360D02*
X5721006Y-10880217D01*
X5721006Y-10880217D02*
X5844815Y-10880217D01*
X5901958Y-10746884D02*
X6035291Y-10746884D01*
X6035291Y-10746884D02*
X5949577Y-10946884D01*
X6101958Y-10765931D02*
X6111482Y-10756408D01*
X6111482Y-10756408D02*
X6130529Y-10746884D01*
X6130529Y-10746884D02*
X6178148Y-10746884D01*
X6178148Y-10746884D02*
X6197196Y-10756408D01*
X6197196Y-10756408D02*
X6206720Y-10765931D01*
X6206720Y-10765931D02*
X6216244Y-10784979D01*
X6216244Y-10784979D02*
X6216244Y-10804027D01*
X6216244Y-10804027D02*
X6206720Y-10832598D01*
X6206720Y-10832598D02*
X6092434Y-10946884D01*
X6092434Y-10946884D02*
X6216244Y-10946884D01*
X6292434Y-10746884D02*
X6292434Y-10784979D01*
X6368625Y-10746884D02*
X6368625Y-10784979D01*
X6663863Y-11023074D02*
X6654339Y-11013550D01*
X6654339Y-11013550D02*
X6635291Y-10984979D01*
X6635291Y-10984979D02*
X6625768Y-10965931D01*
X6625768Y-10965931D02*
X6616244Y-10937360D01*
X6616244Y-10937360D02*
X6606720Y-10889741D01*
X6606720Y-10889741D02*
X6606720Y-10851646D01*
X6606720Y-10851646D02*
X6616244Y-10804027D01*
X6616244Y-10804027D02*
X6625768Y-10775455D01*
X6625768Y-10775455D02*
X6635291Y-10756408D01*
X6635291Y-10756408D02*
X6654339Y-10727836D01*
X6654339Y-10727836D02*
X6663863Y-10718312D01*
X6825768Y-10813550D02*
X6825768Y-10946884D01*
X6778148Y-10737360D02*
X6730529Y-10880217D01*
X6730529Y-10880217D02*
X6854339Y-10880217D01*
X7082910Y-10946884D02*
X7082910Y-10746884D01*
X7168625Y-10946884D02*
X7168625Y-10842122D01*
X7168625Y-10842122D02*
X7159101Y-10823074D01*
X7159101Y-10823074D02*
X7140053Y-10813550D01*
X7140053Y-10813550D02*
X7111482Y-10813550D01*
X7111482Y-10813550D02*
X7092434Y-10823074D01*
X7092434Y-10823074D02*
X7082910Y-10832598D01*
X7292434Y-10946884D02*
X7273387Y-10937360D01*
X7273387Y-10937360D02*
X7263863Y-10927836D01*
X7263863Y-10927836D02*
X7254339Y-10908789D01*
X7254339Y-10908789D02*
X7254339Y-10851646D01*
X7254339Y-10851646D02*
X7263863Y-10832598D01*
X7263863Y-10832598D02*
X7273387Y-10823074D01*
X7273387Y-10823074D02*
X7292434Y-10813550D01*
X7292434Y-10813550D02*
X7321006Y-10813550D01*
X7321006Y-10813550D02*
X7340053Y-10823074D01*
X7340053Y-10823074D02*
X7349577Y-10832598D01*
X7349577Y-10832598D02*
X7359101Y-10851646D01*
X7359101Y-10851646D02*
X7359101Y-10908789D01*
X7359101Y-10908789D02*
X7349577Y-10927836D01*
X7349577Y-10927836D02*
X7340053Y-10937360D01*
X7340053Y-10937360D02*
X7321006Y-10946884D01*
X7321006Y-10946884D02*
X7292434Y-10946884D01*
X7473387Y-10946884D02*
X7454339Y-10937360D01*
X7454339Y-10937360D02*
X7444815Y-10918312D01*
X7444815Y-10918312D02*
X7444815Y-10746884D01*
X7625768Y-10937360D02*
X7606720Y-10946884D01*
X7606720Y-10946884D02*
X7568625Y-10946884D01*
X7568625Y-10946884D02*
X7549577Y-10937360D01*
X7549577Y-10937360D02*
X7540053Y-10918312D01*
X7540053Y-10918312D02*
X7540053Y-10842122D01*
X7540053Y-10842122D02*
X7549577Y-10823074D01*
X7549577Y-10823074D02*
X7568625Y-10813550D01*
X7568625Y-10813550D02*
X7606720Y-10813550D01*
X7606720Y-10813550D02*
X7625768Y-10823074D01*
X7625768Y-10823074D02*
X7635291Y-10842122D01*
X7635291Y-10842122D02*
X7635291Y-10861170D01*
X7635291Y-10861170D02*
X7540053Y-10880217D01*
X7711482Y-10937360D02*
X7730530Y-10946884D01*
X7730530Y-10946884D02*
X7768625Y-10946884D01*
X7768625Y-10946884D02*
X7787672Y-10937360D01*
X7787672Y-10937360D02*
X7797196Y-10918312D01*
X7797196Y-10918312D02*
X7797196Y-10908789D01*
X7797196Y-10908789D02*
X7787672Y-10889741D01*
X7787672Y-10889741D02*
X7768625Y-10880217D01*
X7768625Y-10880217D02*
X7740053Y-10880217D01*
X7740053Y-10880217D02*
X7721006Y-10870693D01*
X7721006Y-10870693D02*
X7711482Y-10851646D01*
X7711482Y-10851646D02*
X7711482Y-10842122D01*
X7711482Y-10842122D02*
X7721006Y-10823074D01*
X7721006Y-10823074D02*
X7740053Y-10813550D01*
X7740053Y-10813550D02*
X7768625Y-10813550D01*
X7768625Y-10813550D02*
X7787672Y-10823074D01*
X7863863Y-11023074D02*
X7873387Y-11013550D01*
X7873387Y-11013550D02*
X7892434Y-10984979D01*
X7892434Y-10984979D02*
X7901958Y-10965931D01*
X7901958Y-10965931D02*
X7911482Y-10937360D01*
X7911482Y-10937360D02*
X7921006Y-10889741D01*
X7921006Y-10889741D02*
X7921006Y-10851646D01*
X7921006Y-10851646D02*
X7911482Y-10804027D01*
X7911482Y-10804027D02*
X7901958Y-10775455D01*
X7901958Y-10775455D02*
X7892434Y-10756408D01*
X7892434Y-10756408D02*
X7873387Y-10727836D01*
X7873387Y-10727836D02*
X7863863Y-10718312D01*
D14*
X3068298Y-11168898D02*
X3068298Y-11069902D01*
X2969302Y-11069902D01*
X2969302Y-11168898D01*
X3068298Y-11168898D01*
D10*
X3454339Y-11210884D02*
X3340053Y-11210884D01*
X3397196Y-11210884D02*
X3397196Y-11010884D01*
X3397196Y-11010884D02*
X3378148Y-11039455D01*
X3378148Y-11039455D02*
X3359101Y-11058503D01*
X3359101Y-11058503D02*
X3340053Y-11068027D01*
X3540053Y-11191836D02*
X3549577Y-11201360D01*
X3549577Y-11201360D02*
X3540053Y-11210884D01*
X3540053Y-11210884D02*
X3530529Y-11201360D01*
X3530529Y-11201360D02*
X3540053Y-11191836D01*
X3540053Y-11191836D02*
X3540053Y-11210884D01*
X3721005Y-11077550D02*
X3721005Y-11210884D01*
X3673386Y-11001360D02*
X3625767Y-11144217D01*
X3625767Y-11144217D02*
X3749577Y-11144217D01*
X3863862Y-11010884D02*
X3882910Y-11010884D01*
X3882910Y-11010884D02*
X3901958Y-11020408D01*
X3901958Y-11020408D02*
X3911482Y-11029931D01*
X3911482Y-11029931D02*
X3921005Y-11048979D01*
X3921005Y-11048979D02*
X3930529Y-11087074D01*
X3930529Y-11087074D02*
X3930529Y-11134693D01*
X3930529Y-11134693D02*
X3921005Y-11172789D01*
X3921005Y-11172789D02*
X3911482Y-11191836D01*
X3911482Y-11191836D02*
X3901958Y-11201360D01*
X3901958Y-11201360D02*
X3882910Y-11210884D01*
X3882910Y-11210884D02*
X3863862Y-11210884D01*
X3863862Y-11210884D02*
X3844815Y-11201360D01*
X3844815Y-11201360D02*
X3835291Y-11191836D01*
X3835291Y-11191836D02*
X3825767Y-11172789D01*
X3825767Y-11172789D02*
X3816243Y-11134693D01*
X3816243Y-11134693D02*
X3816243Y-11087074D01*
X3816243Y-11087074D02*
X3825767Y-11048979D01*
X3825767Y-11048979D02*
X3835291Y-11029931D01*
X3835291Y-11029931D02*
X3844815Y-11020408D01*
X3844815Y-11020408D02*
X3863862Y-11010884D01*
X4054339Y-11010884D02*
X4073386Y-11010884D01*
X4073386Y-11010884D02*
X4092434Y-11020408D01*
X4092434Y-11020408D02*
X4101958Y-11029931D01*
X4101958Y-11029931D02*
X4111482Y-11048979D01*
X4111482Y-11048979D02*
X4121005Y-11087074D01*
X4121005Y-11087074D02*
X4121005Y-11134693D01*
X4121005Y-11134693D02*
X4111482Y-11172789D01*
X4111482Y-11172789D02*
X4101958Y-11191836D01*
X4101958Y-11191836D02*
X4092434Y-11201360D01*
X4092434Y-11201360D02*
X4073386Y-11210884D01*
X4073386Y-11210884D02*
X4054339Y-11210884D01*
X4054339Y-11210884D02*
X4035291Y-11201360D01*
X4035291Y-11201360D02*
X4025767Y-11191836D01*
X4025767Y-11191836D02*
X4016243Y-11172789D01*
X4016243Y-11172789D02*
X4006720Y-11134693D01*
X4006720Y-11134693D02*
X4006720Y-11087074D01*
X4006720Y-11087074D02*
X4016243Y-11048979D01*
X4016243Y-11048979D02*
X4025767Y-11029931D01*
X4025767Y-11029931D02*
X4035291Y-11020408D01*
X4035291Y-11020408D02*
X4054339Y-11010884D01*
X4206720Y-11210884D02*
X4206720Y-11077550D01*
X4206720Y-11096598D02*
X4216244Y-11087074D01*
X4216244Y-11087074D02*
X4235291Y-11077550D01*
X4235291Y-11077550D02*
X4263863Y-11077550D01*
X4263863Y-11077550D02*
X4282910Y-11087074D01*
X4282910Y-11087074D02*
X4292434Y-11106122D01*
X4292434Y-11106122D02*
X4292434Y-11210884D01*
X4292434Y-11106122D02*
X4301958Y-11087074D01*
X4301958Y-11087074D02*
X4321005Y-11077550D01*
X4321005Y-11077550D02*
X4349577Y-11077550D01*
X4349577Y-11077550D02*
X4368625Y-11087074D01*
X4368625Y-11087074D02*
X4378148Y-11106122D01*
X4378148Y-11106122D02*
X4378148Y-11210884D01*
X4473386Y-11210884D02*
X4473386Y-11077550D01*
X4473386Y-11096598D02*
X4482910Y-11087074D01*
X4482910Y-11087074D02*
X4501958Y-11077550D01*
X4501958Y-11077550D02*
X4530529Y-11077550D01*
X4530529Y-11077550D02*
X4549577Y-11087074D01*
X4549577Y-11087074D02*
X4559101Y-11106122D01*
X4559101Y-11106122D02*
X4559101Y-11210884D01*
X4559101Y-11106122D02*
X4568625Y-11087074D01*
X4568625Y-11087074D02*
X4587672Y-11077550D01*
X4587672Y-11077550D02*
X4616244Y-11077550D01*
X4616244Y-11077550D02*
X4635291Y-11087074D01*
X4635291Y-11087074D02*
X4644815Y-11106122D01*
X4644815Y-11106122D02*
X4644815Y-11210884D01*
X5035291Y-11001360D02*
X4863863Y-11258503D01*
X5292434Y-11010884D02*
X5311482Y-11010884D01*
X5311482Y-11010884D02*
X5330529Y-11020408D01*
X5330529Y-11020408D02*
X5340053Y-11029931D01*
X5340053Y-11029931D02*
X5349577Y-11048979D01*
X5349577Y-11048979D02*
X5359101Y-11087074D01*
X5359101Y-11087074D02*
X5359101Y-11134693D01*
X5359101Y-11134693D02*
X5349577Y-11172789D01*
X5349577Y-11172789D02*
X5340053Y-11191836D01*
X5340053Y-11191836D02*
X5330529Y-11201360D01*
X5330529Y-11201360D02*
X5311482Y-11210884D01*
X5311482Y-11210884D02*
X5292434Y-11210884D01*
X5292434Y-11210884D02*
X5273387Y-11201360D01*
X5273387Y-11201360D02*
X5263863Y-11191836D01*
X5263863Y-11191836D02*
X5254339Y-11172789D01*
X5254339Y-11172789D02*
X5244815Y-11134693D01*
X5244815Y-11134693D02*
X5244815Y-11087074D01*
X5244815Y-11087074D02*
X5254339Y-11048979D01*
X5254339Y-11048979D02*
X5263863Y-11029931D01*
X5263863Y-11029931D02*
X5273387Y-11020408D01*
X5273387Y-11020408D02*
X5292434Y-11010884D01*
X5444815Y-11191836D02*
X5454339Y-11201360D01*
X5454339Y-11201360D02*
X5444815Y-11210884D01*
X5444815Y-11210884D02*
X5435291Y-11201360D01*
X5435291Y-11201360D02*
X5444815Y-11191836D01*
X5444815Y-11191836D02*
X5444815Y-11210884D01*
X5578148Y-11010884D02*
X5597196Y-11010884D01*
X5597196Y-11010884D02*
X5616244Y-11020408D01*
X5616244Y-11020408D02*
X5625767Y-11029931D01*
X5625767Y-11029931D02*
X5635291Y-11048979D01*
X5635291Y-11048979D02*
X5644815Y-11087074D01*
X5644815Y-11087074D02*
X5644815Y-11134693D01*
X5644815Y-11134693D02*
X5635291Y-11172789D01*
X5635291Y-11172789D02*
X5625767Y-11191836D01*
X5625767Y-11191836D02*
X5616244Y-11201360D01*
X5616244Y-11201360D02*
X5597196Y-11210884D01*
X5597196Y-11210884D02*
X5578148Y-11210884D01*
X5578148Y-11210884D02*
X5559101Y-11201360D01*
X5559101Y-11201360D02*
X5549577Y-11191836D01*
X5549577Y-11191836D02*
X5540053Y-11172789D01*
X5540053Y-11172789D02*
X5530529Y-11134693D01*
X5530529Y-11134693D02*
X5530529Y-11087074D01*
X5530529Y-11087074D02*
X5540053Y-11048979D01*
X5540053Y-11048979D02*
X5549577Y-11029931D01*
X5549577Y-11029931D02*
X5559101Y-11020408D01*
X5559101Y-11020408D02*
X5578148Y-11010884D01*
X5825767Y-11010884D02*
X5730529Y-11010884D01*
X5730529Y-11010884D02*
X5721006Y-11106122D01*
X5721006Y-11106122D02*
X5730529Y-11096598D01*
X5730529Y-11096598D02*
X5749577Y-11087074D01*
X5749577Y-11087074D02*
X5797196Y-11087074D01*
X5797196Y-11087074D02*
X5816244Y-11096598D01*
X5816244Y-11096598D02*
X5825767Y-11106122D01*
X5825767Y-11106122D02*
X5835291Y-11125170D01*
X5835291Y-11125170D02*
X5835291Y-11172789D01*
X5835291Y-11172789D02*
X5825767Y-11191836D01*
X5825767Y-11191836D02*
X5816244Y-11201360D01*
X5816244Y-11201360D02*
X5797196Y-11210884D01*
X5797196Y-11210884D02*
X5749577Y-11210884D01*
X5749577Y-11210884D02*
X5730529Y-11201360D01*
X5730529Y-11201360D02*
X5721006Y-11191836D01*
X6016244Y-11010884D02*
X5921006Y-11010884D01*
X5921006Y-11010884D02*
X5911482Y-11106122D01*
X5911482Y-11106122D02*
X5921006Y-11096598D01*
X5921006Y-11096598D02*
X5940053Y-11087074D01*
X5940053Y-11087074D02*
X5987672Y-11087074D01*
X5987672Y-11087074D02*
X6006720Y-11096598D01*
X6006720Y-11096598D02*
X6016244Y-11106122D01*
X6016244Y-11106122D02*
X6025767Y-11125170D01*
X6025767Y-11125170D02*
X6025767Y-11172789D01*
X6025767Y-11172789D02*
X6016244Y-11191836D01*
X6016244Y-11191836D02*
X6006720Y-11201360D01*
X6006720Y-11201360D02*
X5987672Y-11210884D01*
X5987672Y-11210884D02*
X5940053Y-11210884D01*
X5940053Y-11210884D02*
X5921006Y-11201360D01*
X5921006Y-11201360D02*
X5911482Y-11191836D01*
X6216244Y-11210884D02*
X6101958Y-11210884D01*
X6159101Y-11210884D02*
X6159101Y-11010884D01*
X6159101Y-11010884D02*
X6140053Y-11039455D01*
X6140053Y-11039455D02*
X6121006Y-11058503D01*
X6121006Y-11058503D02*
X6101958Y-11068027D01*
X6292434Y-11010884D02*
X6292434Y-11048979D01*
X6368625Y-11010884D02*
X6368625Y-11048979D01*
X6663863Y-11287074D02*
X6654339Y-11277550D01*
X6654339Y-11277550D02*
X6635291Y-11248979D01*
X6635291Y-11248979D02*
X6625768Y-11229931D01*
X6625768Y-11229931D02*
X6616244Y-11201360D01*
X6616244Y-11201360D02*
X6606720Y-11153741D01*
X6606720Y-11153741D02*
X6606720Y-11115646D01*
X6606720Y-11115646D02*
X6616244Y-11068027D01*
X6616244Y-11068027D02*
X6625768Y-11039455D01*
X6625768Y-11039455D02*
X6635291Y-11020408D01*
X6635291Y-11020408D02*
X6654339Y-10991836D01*
X6654339Y-10991836D02*
X6663863Y-10982312D01*
X6730529Y-11029931D02*
X6740053Y-11020408D01*
X6740053Y-11020408D02*
X6759101Y-11010884D01*
X6759101Y-11010884D02*
X6806720Y-11010884D01*
X6806720Y-11010884D02*
X6825768Y-11020408D01*
X6825768Y-11020408D02*
X6835291Y-11029931D01*
X6835291Y-11029931D02*
X6844815Y-11048979D01*
X6844815Y-11048979D02*
X6844815Y-11068027D01*
X6844815Y-11068027D02*
X6835291Y-11096598D01*
X6835291Y-11096598D02*
X6721006Y-11210884D01*
X6721006Y-11210884D02*
X6844815Y-11210884D01*
X7082910Y-11210884D02*
X7082910Y-11010884D01*
X7168625Y-11210884D02*
X7168625Y-11106122D01*
X7168625Y-11106122D02*
X7159101Y-11087074D01*
X7159101Y-11087074D02*
X7140053Y-11077550D01*
X7140053Y-11077550D02*
X7111482Y-11077550D01*
X7111482Y-11077550D02*
X7092434Y-11087074D01*
X7092434Y-11087074D02*
X7082910Y-11096598D01*
X7292434Y-11210884D02*
X7273387Y-11201360D01*
X7273387Y-11201360D02*
X7263863Y-11191836D01*
X7263863Y-11191836D02*
X7254339Y-11172789D01*
X7254339Y-11172789D02*
X7254339Y-11115646D01*
X7254339Y-11115646D02*
X7263863Y-11096598D01*
X7263863Y-11096598D02*
X7273387Y-11087074D01*
X7273387Y-11087074D02*
X7292434Y-11077550D01*
X7292434Y-11077550D02*
X7321006Y-11077550D01*
X7321006Y-11077550D02*
X7340053Y-11087074D01*
X7340053Y-11087074D02*
X7349577Y-11096598D01*
X7349577Y-11096598D02*
X7359101Y-11115646D01*
X7359101Y-11115646D02*
X7359101Y-11172789D01*
X7359101Y-11172789D02*
X7349577Y-11191836D01*
X7349577Y-11191836D02*
X7340053Y-11201360D01*
X7340053Y-11201360D02*
X7321006Y-11210884D01*
X7321006Y-11210884D02*
X7292434Y-11210884D01*
X7473387Y-11210884D02*
X7454339Y-11201360D01*
X7454339Y-11201360D02*
X7444815Y-11182312D01*
X7444815Y-11182312D02*
X7444815Y-11010884D01*
X7625768Y-11201360D02*
X7606720Y-11210884D01*
X7606720Y-11210884D02*
X7568625Y-11210884D01*
X7568625Y-11210884D02*
X7549577Y-11201360D01*
X7549577Y-11201360D02*
X7540053Y-11182312D01*
X7540053Y-11182312D02*
X7540053Y-11106122D01*
X7540053Y-11106122D02*
X7549577Y-11087074D01*
X7549577Y-11087074D02*
X7568625Y-11077550D01*
X7568625Y-11077550D02*
X7606720Y-11077550D01*
X7606720Y-11077550D02*
X7625768Y-11087074D01*
X7625768Y-11087074D02*
X7635291Y-11106122D01*
X7635291Y-11106122D02*
X7635291Y-11125170D01*
X7635291Y-11125170D02*
X7540053Y-11144217D01*
X7711482Y-11201360D02*
X7730530Y-11210884D01*
X7730530Y-11210884D02*
X7768625Y-11210884D01*
X7768625Y-11210884D02*
X7787672Y-11201360D01*
X7787672Y-11201360D02*
X7797196Y-11182312D01*
X7797196Y-11182312D02*
X7797196Y-11172789D01*
X7797196Y-11172789D02*
X7787672Y-11153741D01*
X7787672Y-11153741D02*
X7768625Y-11144217D01*
X7768625Y-11144217D02*
X7740053Y-11144217D01*
X7740053Y-11144217D02*
X7721006Y-11134693D01*
X7721006Y-11134693D02*
X7711482Y-11115646D01*
X7711482Y-11115646D02*
X7711482Y-11106122D01*
X7711482Y-11106122D02*
X7721006Y-11087074D01*
X7721006Y-11087074D02*
X7740053Y-11077550D01*
X7740053Y-11077550D02*
X7768625Y-11077550D01*
X7768625Y-11077550D02*
X7787672Y-11087074D01*
X7863863Y-11287074D02*
X7873387Y-11277550D01*
X7873387Y-11277550D02*
X7892434Y-11248979D01*
X7892434Y-11248979D02*
X7901958Y-11229931D01*
X7901958Y-11229931D02*
X7911482Y-11201360D01*
X7911482Y-11201360D02*
X7921006Y-11153741D01*
X7921006Y-11153741D02*
X7921006Y-11115646D01*
X7921006Y-11115646D02*
X7911482Y-11068027D01*
X7911482Y-11068027D02*
X7901958Y-11039455D01*
X7901958Y-11039455D02*
X7892434Y-11020408D01*
X7892434Y-11020408D02*
X7873387Y-10991836D01*
X7873387Y-10991836D02*
X7863863Y-10982312D01*
D15*
X3003800Y-11468400D02*
X3088800Y-11383400D01*
X3003800Y-11298400D01*
X2918800Y-11383400D01*
X3003800Y-11468400D01*
D10*
X3454339Y-11474884D02*
X3340053Y-11474884D01*
X3397196Y-11474884D02*
X3397196Y-11274884D01*
X3397196Y-11274884D02*
X3378148Y-11303455D01*
X3378148Y-11303455D02*
X3359101Y-11322503D01*
X3359101Y-11322503D02*
X3340053Y-11332027D01*
X3540053Y-11455836D02*
X3549577Y-11465360D01*
X3549577Y-11465360D02*
X3540053Y-11474884D01*
X3540053Y-11474884D02*
X3530529Y-11465360D01*
X3530529Y-11465360D02*
X3540053Y-11455836D01*
X3540053Y-11455836D02*
X3540053Y-11474884D01*
X3616243Y-11274884D02*
X3749577Y-11274884D01*
X3749577Y-11274884D02*
X3663862Y-11474884D01*
X3863862Y-11274884D02*
X3882910Y-11274884D01*
X3882910Y-11274884D02*
X3901958Y-11284408D01*
X3901958Y-11284408D02*
X3911482Y-11293931D01*
X3911482Y-11293931D02*
X3921005Y-11312979D01*
X3921005Y-11312979D02*
X3930529Y-11351074D01*
X3930529Y-11351074D02*
X3930529Y-11398693D01*
X3930529Y-11398693D02*
X3921005Y-11436788D01*
X3921005Y-11436788D02*
X3911482Y-11455836D01*
X3911482Y-11455836D02*
X3901958Y-11465360D01*
X3901958Y-11465360D02*
X3882910Y-11474884D01*
X3882910Y-11474884D02*
X3863862Y-11474884D01*
X3863862Y-11474884D02*
X3844815Y-11465360D01*
X3844815Y-11465360D02*
X3835291Y-11455836D01*
X3835291Y-11455836D02*
X3825767Y-11436788D01*
X3825767Y-11436788D02*
X3816243Y-11398693D01*
X3816243Y-11398693D02*
X3816243Y-11351074D01*
X3816243Y-11351074D02*
X3825767Y-11312979D01*
X3825767Y-11312979D02*
X3835291Y-11293931D01*
X3835291Y-11293931D02*
X3844815Y-11284408D01*
X3844815Y-11284408D02*
X3863862Y-11274884D01*
X4054339Y-11274884D02*
X4073386Y-11274884D01*
X4073386Y-11274884D02*
X4092434Y-11284408D01*
X4092434Y-11284408D02*
X4101958Y-11293931D01*
X4101958Y-11293931D02*
X4111482Y-11312979D01*
X4111482Y-11312979D02*
X4121005Y-11351074D01*
X4121005Y-11351074D02*
X4121005Y-11398693D01*
X4121005Y-11398693D02*
X4111482Y-11436788D01*
X4111482Y-11436788D02*
X4101958Y-11455836D01*
X4101958Y-11455836D02*
X4092434Y-11465360D01*
X4092434Y-11465360D02*
X4073386Y-11474884D01*
X4073386Y-11474884D02*
X4054339Y-11474884D01*
X4054339Y-11474884D02*
X4035291Y-11465360D01*
X4035291Y-11465360D02*
X4025767Y-11455836D01*
X4025767Y-11455836D02*
X4016243Y-11436788D01*
X4016243Y-11436788D02*
X4006720Y-11398693D01*
X4006720Y-11398693D02*
X4006720Y-11351074D01*
X4006720Y-11351074D02*
X4016243Y-11312979D01*
X4016243Y-11312979D02*
X4025767Y-11293931D01*
X4025767Y-11293931D02*
X4035291Y-11284408D01*
X4035291Y-11284408D02*
X4054339Y-11274884D01*
X4206720Y-11474884D02*
X4206720Y-11341550D01*
X4206720Y-11360598D02*
X4216244Y-11351074D01*
X4216244Y-11351074D02*
X4235291Y-11341550D01*
X4235291Y-11341550D02*
X4263863Y-11341550D01*
X4263863Y-11341550D02*
X4282910Y-11351074D01*
X4282910Y-11351074D02*
X4292434Y-11370122D01*
X4292434Y-11370122D02*
X4292434Y-11474884D01*
X4292434Y-11370122D02*
X4301958Y-11351074D01*
X4301958Y-11351074D02*
X4321005Y-11341550D01*
X4321005Y-11341550D02*
X4349577Y-11341550D01*
X4349577Y-11341550D02*
X4368625Y-11351074D01*
X4368625Y-11351074D02*
X4378148Y-11370122D01*
X4378148Y-11370122D02*
X4378148Y-11474884D01*
X4473386Y-11474884D02*
X4473386Y-11341550D01*
X4473386Y-11360598D02*
X4482910Y-11351074D01*
X4482910Y-11351074D02*
X4501958Y-11341550D01*
X4501958Y-11341550D02*
X4530529Y-11341550D01*
X4530529Y-11341550D02*
X4549577Y-11351074D01*
X4549577Y-11351074D02*
X4559101Y-11370122D01*
X4559101Y-11370122D02*
X4559101Y-11474884D01*
X4559101Y-11370122D02*
X4568625Y-11351074D01*
X4568625Y-11351074D02*
X4587672Y-11341550D01*
X4587672Y-11341550D02*
X4616244Y-11341550D01*
X4616244Y-11341550D02*
X4635291Y-11351074D01*
X4635291Y-11351074D02*
X4644815Y-11370122D01*
X4644815Y-11370122D02*
X4644815Y-11474884D01*
X5035291Y-11265360D02*
X4863863Y-11522503D01*
X5292434Y-11274884D02*
X5311482Y-11274884D01*
X5311482Y-11274884D02*
X5330529Y-11284408D01*
X5330529Y-11284408D02*
X5340053Y-11293931D01*
X5340053Y-11293931D02*
X5349577Y-11312979D01*
X5349577Y-11312979D02*
X5359101Y-11351074D01*
X5359101Y-11351074D02*
X5359101Y-11398693D01*
X5359101Y-11398693D02*
X5349577Y-11436788D01*
X5349577Y-11436788D02*
X5340053Y-11455836D01*
X5340053Y-11455836D02*
X5330529Y-11465360D01*
X5330529Y-11465360D02*
X5311482Y-11474884D01*
X5311482Y-11474884D02*
X5292434Y-11474884D01*
X5292434Y-11474884D02*
X5273387Y-11465360D01*
X5273387Y-11465360D02*
X5263863Y-11455836D01*
X5263863Y-11455836D02*
X5254339Y-11436788D01*
X5254339Y-11436788D02*
X5244815Y-11398693D01*
X5244815Y-11398693D02*
X5244815Y-11351074D01*
X5244815Y-11351074D02*
X5254339Y-11312979D01*
X5254339Y-11312979D02*
X5263863Y-11293931D01*
X5263863Y-11293931D02*
X5273387Y-11284408D01*
X5273387Y-11284408D02*
X5292434Y-11274884D01*
X5444815Y-11455836D02*
X5454339Y-11465360D01*
X5454339Y-11465360D02*
X5444815Y-11474884D01*
X5444815Y-11474884D02*
X5435291Y-11465360D01*
X5435291Y-11465360D02*
X5444815Y-11455836D01*
X5444815Y-11455836D02*
X5444815Y-11474884D01*
X5578148Y-11274884D02*
X5597196Y-11274884D01*
X5597196Y-11274884D02*
X5616244Y-11284408D01*
X5616244Y-11284408D02*
X5625767Y-11293931D01*
X5625767Y-11293931D02*
X5635291Y-11312979D01*
X5635291Y-11312979D02*
X5644815Y-11351074D01*
X5644815Y-11351074D02*
X5644815Y-11398693D01*
X5644815Y-11398693D02*
X5635291Y-11436788D01*
X5635291Y-11436788D02*
X5625767Y-11455836D01*
X5625767Y-11455836D02*
X5616244Y-11465360D01*
X5616244Y-11465360D02*
X5597196Y-11474884D01*
X5597196Y-11474884D02*
X5578148Y-11474884D01*
X5578148Y-11474884D02*
X5559101Y-11465360D01*
X5559101Y-11465360D02*
X5549577Y-11455836D01*
X5549577Y-11455836D02*
X5540053Y-11436788D01*
X5540053Y-11436788D02*
X5530529Y-11398693D01*
X5530529Y-11398693D02*
X5530529Y-11351074D01*
X5530529Y-11351074D02*
X5540053Y-11312979D01*
X5540053Y-11312979D02*
X5549577Y-11293931D01*
X5549577Y-11293931D02*
X5559101Y-11284408D01*
X5559101Y-11284408D02*
X5578148Y-11274884D01*
X5816244Y-11274884D02*
X5778148Y-11274884D01*
X5778148Y-11274884D02*
X5759101Y-11284408D01*
X5759101Y-11284408D02*
X5749577Y-11293931D01*
X5749577Y-11293931D02*
X5730529Y-11322503D01*
X5730529Y-11322503D02*
X5721006Y-11360598D01*
X5721006Y-11360598D02*
X5721006Y-11436788D01*
X5721006Y-11436788D02*
X5730529Y-11455836D01*
X5730529Y-11455836D02*
X5740053Y-11465360D01*
X5740053Y-11465360D02*
X5759101Y-11474884D01*
X5759101Y-11474884D02*
X5797196Y-11474884D01*
X5797196Y-11474884D02*
X5816244Y-11465360D01*
X5816244Y-11465360D02*
X5825767Y-11455836D01*
X5825767Y-11455836D02*
X5835291Y-11436788D01*
X5835291Y-11436788D02*
X5835291Y-11389169D01*
X5835291Y-11389169D02*
X5825767Y-11370122D01*
X5825767Y-11370122D02*
X5816244Y-11360598D01*
X5816244Y-11360598D02*
X5797196Y-11351074D01*
X5797196Y-11351074D02*
X5759101Y-11351074D01*
X5759101Y-11351074D02*
X5740053Y-11360598D01*
X5740053Y-11360598D02*
X5730529Y-11370122D01*
X5730529Y-11370122D02*
X5721006Y-11389169D01*
X6006720Y-11274884D02*
X5968625Y-11274884D01*
X5968625Y-11274884D02*
X5949577Y-11284408D01*
X5949577Y-11284408D02*
X5940053Y-11293931D01*
X5940053Y-11293931D02*
X5921006Y-11322503D01*
X5921006Y-11322503D02*
X5911482Y-11360598D01*
X5911482Y-11360598D02*
X5911482Y-11436788D01*
X5911482Y-11436788D02*
X5921006Y-11455836D01*
X5921006Y-11455836D02*
X5930529Y-11465360D01*
X5930529Y-11465360D02*
X5949577Y-11474884D01*
X5949577Y-11474884D02*
X5987672Y-11474884D01*
X5987672Y-11474884D02*
X6006720Y-11465360D01*
X6006720Y-11465360D02*
X6016244Y-11455836D01*
X6016244Y-11455836D02*
X6025767Y-11436788D01*
X6025767Y-11436788D02*
X6025767Y-11389169D01*
X6025767Y-11389169D02*
X6016244Y-11370122D01*
X6016244Y-11370122D02*
X6006720Y-11360598D01*
X6006720Y-11360598D02*
X5987672Y-11351074D01*
X5987672Y-11351074D02*
X5949577Y-11351074D01*
X5949577Y-11351074D02*
X5930529Y-11360598D01*
X5930529Y-11360598D02*
X5921006Y-11370122D01*
X5921006Y-11370122D02*
X5911482Y-11389169D01*
X6121006Y-11474884D02*
X6159101Y-11474884D01*
X6159101Y-11474884D02*
X6178148Y-11465360D01*
X6178148Y-11465360D02*
X6187672Y-11455836D01*
X6187672Y-11455836D02*
X6206720Y-11427265D01*
X6206720Y-11427265D02*
X6216244Y-11389169D01*
X6216244Y-11389169D02*
X6216244Y-11312979D01*
X6216244Y-11312979D02*
X6206720Y-11293931D01*
X6206720Y-11293931D02*
X6197196Y-11284408D01*
X6197196Y-11284408D02*
X6178148Y-11274884D01*
X6178148Y-11274884D02*
X6140053Y-11274884D01*
X6140053Y-11274884D02*
X6121006Y-11284408D01*
X6121006Y-11284408D02*
X6111482Y-11293931D01*
X6111482Y-11293931D02*
X6101958Y-11312979D01*
X6101958Y-11312979D02*
X6101958Y-11360598D01*
X6101958Y-11360598D02*
X6111482Y-11379646D01*
X6111482Y-11379646D02*
X6121006Y-11389169D01*
X6121006Y-11389169D02*
X6140053Y-11398693D01*
X6140053Y-11398693D02*
X6178148Y-11398693D01*
X6178148Y-11398693D02*
X6197196Y-11389169D01*
X6197196Y-11389169D02*
X6206720Y-11379646D01*
X6206720Y-11379646D02*
X6216244Y-11360598D01*
X6292434Y-11274884D02*
X6292434Y-11312979D01*
X6368625Y-11274884D02*
X6368625Y-11312979D01*
X6663863Y-11551074D02*
X6654339Y-11541550D01*
X6654339Y-11541550D02*
X6635291Y-11512979D01*
X6635291Y-11512979D02*
X6625768Y-11493931D01*
X6625768Y-11493931D02*
X6616244Y-11465360D01*
X6616244Y-11465360D02*
X6606720Y-11417741D01*
X6606720Y-11417741D02*
X6606720Y-11379646D01*
X6606720Y-11379646D02*
X6616244Y-11332027D01*
X6616244Y-11332027D02*
X6625768Y-11303455D01*
X6625768Y-11303455D02*
X6635291Y-11284408D01*
X6635291Y-11284408D02*
X6654339Y-11255836D01*
X6654339Y-11255836D02*
X6663863Y-11246312D01*
X6825768Y-11341550D02*
X6825768Y-11474884D01*
X6778148Y-11265360D02*
X6730529Y-11408217D01*
X6730529Y-11408217D02*
X6854339Y-11408217D01*
X7082910Y-11474884D02*
X7082910Y-11274884D01*
X7168625Y-11474884D02*
X7168625Y-11370122D01*
X7168625Y-11370122D02*
X7159101Y-11351074D01*
X7159101Y-11351074D02*
X7140053Y-11341550D01*
X7140053Y-11341550D02*
X7111482Y-11341550D01*
X7111482Y-11341550D02*
X7092434Y-11351074D01*
X7092434Y-11351074D02*
X7082910Y-11360598D01*
X7292434Y-11474884D02*
X7273387Y-11465360D01*
X7273387Y-11465360D02*
X7263863Y-11455836D01*
X7263863Y-11455836D02*
X7254339Y-11436788D01*
X7254339Y-11436788D02*
X7254339Y-11379646D01*
X7254339Y-11379646D02*
X7263863Y-11360598D01*
X7263863Y-11360598D02*
X7273387Y-11351074D01*
X7273387Y-11351074D02*
X7292434Y-11341550D01*
X7292434Y-11341550D02*
X7321006Y-11341550D01*
X7321006Y-11341550D02*
X7340053Y-11351074D01*
X7340053Y-11351074D02*
X7349577Y-11360598D01*
X7349577Y-11360598D02*
X7359101Y-11379646D01*
X7359101Y-11379646D02*
X7359101Y-11436788D01*
X7359101Y-11436788D02*
X7349577Y-11455836D01*
X7349577Y-11455836D02*
X7340053Y-11465360D01*
X7340053Y-11465360D02*
X7321006Y-11474884D01*
X7321006Y-11474884D02*
X7292434Y-11474884D01*
X7473387Y-11474884D02*
X7454339Y-11465360D01*
X7454339Y-11465360D02*
X7444815Y-11446312D01*
X7444815Y-11446312D02*
X7444815Y-11274884D01*
X7625768Y-11465360D02*
X7606720Y-11474884D01*
X7606720Y-11474884D02*
X7568625Y-11474884D01*
X7568625Y-11474884D02*
X7549577Y-11465360D01*
X7549577Y-11465360D02*
X7540053Y-11446312D01*
X7540053Y-11446312D02*
X7540053Y-11370122D01*
X7540053Y-11370122D02*
X7549577Y-11351074D01*
X7549577Y-11351074D02*
X7568625Y-11341550D01*
X7568625Y-11341550D02*
X7606720Y-11341550D01*
X7606720Y-11341550D02*
X7625768Y-11351074D01*
X7625768Y-11351074D02*
X7635291Y-11370122D01*
X7635291Y-11370122D02*
X7635291Y-11389169D01*
X7635291Y-11389169D02*
X7540053Y-11408217D01*
X7711482Y-11465360D02*
X7730530Y-11474884D01*
X7730530Y-11474884D02*
X7768625Y-11474884D01*
X7768625Y-11474884D02*
X7787672Y-11465360D01*
X7787672Y-11465360D02*
X7797196Y-11446312D01*
X7797196Y-11446312D02*
X7797196Y-11436788D01*
X7797196Y-11436788D02*
X7787672Y-11417741D01*
X7787672Y-11417741D02*
X7768625Y-11408217D01*
X7768625Y-11408217D02*
X7740053Y-11408217D01*
X7740053Y-11408217D02*
X7721006Y-11398693D01*
X7721006Y-11398693D02*
X7711482Y-11379646D01*
X7711482Y-11379646D02*
X7711482Y-11370122D01*
X7711482Y-11370122D02*
X7721006Y-11351074D01*
X7721006Y-11351074D02*
X7740053Y-11341550D01*
X7740053Y-11341550D02*
X7768625Y-11341550D01*
X7768625Y-11341550D02*
X7787672Y-11351074D01*
X7863863Y-11551074D02*
X7873387Y-11541550D01*
X7873387Y-11541550D02*
X7892434Y-11512979D01*
X7892434Y-11512979D02*
X7901958Y-11493931D01*
X7901958Y-11493931D02*
X7911482Y-11465360D01*
X7911482Y-11465360D02*
X7921006Y-11417741D01*
X7921006Y-11417741D02*
X7921006Y-11379646D01*
X7921006Y-11379646D02*
X7911482Y-11332027D01*
X7911482Y-11332027D02*
X7901958Y-11303455D01*
X7901958Y-11303455D02*
X7892434Y-11284408D01*
X7892434Y-11284408D02*
X7873387Y-11255836D01*
X7873387Y-11255836D02*
X7863863Y-11246312D01*
M02*
