M48
; DRILL file {KiCad 7.0.8} date Wed Dec 25 15:07:21 2024
; FORMAT={-:-/ absolute / inch / decimal}
; #@! TF.CreationDate,2024-12-25T15:07:21+01:00
; #@! TF.GenerationSoftware,Kicad,Pcbnew,7.0.8
; #@! TF.FileFunction,Plated,1,4,PTH
FMAT,2
INCH
; #@! TA.AperFunction,Plated,PTH,ViaDrill
T1C0.0157
; #@! TA.AperFunction,Plated,PTH,ComponentDrill
T2C0.0394
; #@! TA.AperFunction,Plated,PTH,ComponentDrill
T3C0.0472
; #@! TA.AperFunction,Plated,PTH,ComponentDrill
T4C0.0551
; #@! TA.AperFunction,Plated,PTH,ComponentDrill
T5C0.0669
%
G90
G05
T1
X1.255Y-0.835
X1.255Y-1.01
X1.255Y-1.19
X1.255Y-1.375
X1.255Y-1.545
X1.255Y-1.715
X1.255Y-1.89
X1.255Y-2.07
X1.255Y-2.25
X1.255Y-2.43
X1.255Y-2.61
X1.255Y-2.78
X1.255Y-2.955
X1.255Y-3.13
X1.255Y-3.31
X1.255Y-3.49
X1.255Y-3.645
X1.255Y-3.78
X1.42Y-0.835
X1.42Y-3.4
X1.435Y-3.78
X1.495Y-3.51
X1.55Y-1.101
X1.55Y-1.1465
X1.55Y-1.191
X1.56Y-1.525
X1.575Y-2.82
X1.6Y-1.7238
X1.6Y-3.78
X1.605Y-2.215
X1.615Y-3.4
X1.645Y-1.72
X1.685Y-3.515
X1.695Y-0.835
X1.745Y-3.135
X1.765Y-3.04
X1.77Y-2.455
X1.77Y-3.78
X1.795Y-1.795
X1.81Y-2.19
X1.81Y-2.2414
X1.81Y-3.32
X1.81Y-3.4
X1.815Y-2.055
X1.8329Y-1.3008
X1.9Y-3.245
X1.925Y-2.4067
X1.93Y-1.54
X1.9322Y-1.465
X1.9334Y-1.7784
X1.945Y-3.78
X1.95Y-0.835
X1.9701Y-1.3678
X2.025Y-2.575
X2.025Y-2.8985
X2.0665Y-3.0343
X2.075Y-2.58
X2.08Y-2.4067
X2.1048Y-2.1498
X2.105Y-2.53
X2.12Y-3.78
X2.13Y-0.835
X2.1391Y-2.5794
X2.14Y-2.2414
X2.145Y-2.775
X2.1724Y-2.4326
X2.175Y-2.205
X2.175Y-2.065
X2.184Y-1.739
X2.185Y-1.695
X2.215Y-2.595
X2.222Y-2.9388
X2.245Y-2.635
X2.245Y-2.735
X2.255Y-2.685
X2.26Y-3.125
X2.3Y-3.36
X2.3Y-3.44
X2.3Y-3.52
X2.3Y-3.61
X2.3Y-3.695
X2.3Y-3.78
X2.3031Y-3.2604
X2.3033Y-2.4336
X2.305Y-0.835
X2.3073Y-2.235
X2.311Y-3.1597
X2.32Y-2.135
X2.36Y-3.075
X2.39Y-3.78
X2.425Y-3.485
X2.43Y-3.66
X2.4385Y-3.105
X2.45Y-1.8159
X2.4586Y-3.0425
X2.475Y-0.835
X2.4761Y-3.0843
X2.48Y-3.78
X2.49Y-2.645
X2.5149Y-3.091
X2.515Y-2.77
X2.52Y-3.13
X2.545Y-3.42
X2.545Y-3.575
X2.57Y-3.78
X2.577Y-3.055
X2.59Y-2.545
X2.5967Y-2.672
X2.6186Y-3.25
X2.625Y-2.42
X2.63Y-3.485
X2.635Y-2.1918
X2.64Y-2.065
X2.645Y-0.835
X2.6474Y-1.745
X2.65Y-3.37
X2.655Y-3.665
X2.66Y-3.78
X2.6698Y-2.4648
X2.68Y-3.25
X2.685Y-1.115
X2.6852Y-2.9402
X2.6951Y-2.665
X2.6965Y-3.0701
X2.715Y-3.33
X2.7324Y-2.6775
X2.75Y-3.78
X2.765Y-3.51
X2.7665Y-2.5407
X2.7699Y-3.1101
X2.79Y-3.64
X2.795Y-1.71
X2.805Y-3.4
X2.81Y-3.02
X2.815Y-3.32
X2.82Y-0.835
X2.84Y-3.78
X2.86Y-3.1
X2.865Y-3.46
X2.885Y-3.725
X2.9Y-1.67
X2.915Y-1.31
X2.925Y-3.4
X2.925Y-3.78
X2.93Y-3.525
X2.955Y-1.57
X2.985Y-2.655
X2.985Y-2.735
X3.0Y-0.835
X3.015Y-3.78
X3.025Y-2.9
X3.035Y-3.32
X3.035Y-3.49
X3.065Y-3.565
X3.07Y-3.735
X3.0763Y-3.095
X3.1Y-3.64
X3.1Y-3.78
X3.13Y-3.405
X3.16Y-1.565
X3.18Y-0.835
X3.185Y-3.78
X3.19Y-1.935
X3.225Y-1.725
X3.225Y-3.32
X3.225Y-3.49
X3.225Y-3.655
X3.27Y-1.405
X3.27Y-3.78
X3.36Y-0.835
X3.36Y-1.005
X3.36Y-1.175
X3.36Y-1.35
X3.36Y-1.525
X3.36Y-1.705
X3.36Y-1.885
X3.36Y-2.05
X3.36Y-2.22
X3.36Y-2.39
X3.36Y-2.565
X3.36Y-2.745
X3.36Y-2.925
X3.36Y-3.105
X3.36Y-3.19
X3.36Y-3.275
X3.36Y-3.36
X3.36Y-3.445
X3.36Y-3.53
X3.36Y-3.615
X3.36Y-3.7
X3.36Y-3.78
T2
X1.36Y-1.3191
X1.3857Y-2.9849
X1.3872Y-2.7729
X1.56Y-2.1
X1.66Y-2.1
X1.7007Y-1.5791
X1.76Y-2.1
X2.055Y-1.5791
X2.2807Y-1.5791
X2.635Y-1.5791
X2.8121Y-0.9428
X2.9121Y-0.9428
X3.215Y-2.2526
X3.215Y-2.3526
X3.215Y-2.4526
X3.215Y-2.5526
X3.215Y-2.7594
X3.215Y-2.8594
X3.215Y-2.9594
T3
X1.544Y-0.8667
X1.8491Y-0.8667
X2.115Y-1.265
X3.115Y-1.265
T4
X1.5499Y-1.0163
X1.8432Y-1.0163
T5
X1.36Y-1.5096
X1.36Y-1.7757
X1.36Y-2.0624
X1.36Y-2.3285
T0
M30
