%TF.GenerationSoftware,KiCad,Pcbnew,7.0.8*%
%TF.CreationDate,2024-12-25T15:07:26+01:00*%
%TF.ProjectId,STM32_Multimeter_PCB,53544d33-325f-44d7-956c-74696d657465,rev?*%
%TF.SameCoordinates,Original*%
%TF.FileFunction,Drillmap*%
%TF.FilePolarity,Positive*%
%FSLAX45Y45*%
G04 Gerber Fmt 4.5, Leading zero omitted, Abs format (unit mm)*
G04 Created by KiCad (PCBNEW 7.0.8) date 2024-12-25 15:07:26*
%MOMM*%
%LPD*%
G01*
G04 APERTURE LIST*
%ADD10C,0.200000*%
%ADD11C,0.080000*%
G04 APERTURE END LIST*
D10*
X3098800Y-2032000D02*
X8623300Y-2032000D01*
X8623300Y-9677400D01*
X3098800Y-9677400D01*
X3098800Y-2032000D01*
D11*
X4019300Y-2436500D02*
X4099300Y-2516500D01*
X4099300Y-2436500D02*
X4019300Y-2516500D01*
X4519300Y-2436500D02*
X4599300Y-2516500D01*
X4599300Y-2436500D02*
X4519300Y-2516500D01*
D10*
X3349577Y-9998884D02*
X3349577Y-9798884D01*
X3349577Y-9798884D02*
X3397196Y-9798884D01*
X3397196Y-9798884D02*
X3425767Y-9808408D01*
X3425767Y-9808408D02*
X3444815Y-9827455D01*
X3444815Y-9827455D02*
X3454339Y-9846503D01*
X3454339Y-9846503D02*
X3463862Y-9884598D01*
X3463862Y-9884598D02*
X3463862Y-9913170D01*
X3463862Y-9913170D02*
X3454339Y-9951265D01*
X3454339Y-9951265D02*
X3444815Y-9970312D01*
X3444815Y-9970312D02*
X3425767Y-9989360D01*
X3425767Y-9989360D02*
X3397196Y-9998884D01*
X3397196Y-9998884D02*
X3349577Y-9998884D01*
X3549577Y-9998884D02*
X3549577Y-9865550D01*
X3549577Y-9903646D02*
X3559101Y-9884598D01*
X3559101Y-9884598D02*
X3568624Y-9875074D01*
X3568624Y-9875074D02*
X3587672Y-9865550D01*
X3587672Y-9865550D02*
X3606720Y-9865550D01*
X3673386Y-9998884D02*
X3673386Y-9865550D01*
X3673386Y-9798884D02*
X3663862Y-9808408D01*
X3663862Y-9808408D02*
X3673386Y-9817931D01*
X3673386Y-9817931D02*
X3682910Y-9808408D01*
X3682910Y-9808408D02*
X3673386Y-9798884D01*
X3673386Y-9798884D02*
X3673386Y-9817931D01*
X3797196Y-9998884D02*
X3778148Y-9989360D01*
X3778148Y-9989360D02*
X3768624Y-9970312D01*
X3768624Y-9970312D02*
X3768624Y-9798884D01*
X3901958Y-9998884D02*
X3882910Y-9989360D01*
X3882910Y-9989360D02*
X3873386Y-9970312D01*
X3873386Y-9970312D02*
X3873386Y-9798884D01*
X4130529Y-9998884D02*
X4130529Y-9798884D01*
X4130529Y-9798884D02*
X4197196Y-9941741D01*
X4197196Y-9941741D02*
X4263863Y-9798884D01*
X4263863Y-9798884D02*
X4263863Y-9998884D01*
X4444815Y-9998884D02*
X4444815Y-9894122D01*
X4444815Y-9894122D02*
X4435291Y-9875074D01*
X4435291Y-9875074D02*
X4416244Y-9865550D01*
X4416244Y-9865550D02*
X4378148Y-9865550D01*
X4378148Y-9865550D02*
X4359101Y-9875074D01*
X4444815Y-9989360D02*
X4425767Y-9998884D01*
X4425767Y-9998884D02*
X4378148Y-9998884D01*
X4378148Y-9998884D02*
X4359101Y-9989360D01*
X4359101Y-9989360D02*
X4349577Y-9970312D01*
X4349577Y-9970312D02*
X4349577Y-9951265D01*
X4349577Y-9951265D02*
X4359101Y-9932217D01*
X4359101Y-9932217D02*
X4378148Y-9922693D01*
X4378148Y-9922693D02*
X4425767Y-9922693D01*
X4425767Y-9922693D02*
X4444815Y-9913170D01*
X4540053Y-9865550D02*
X4540053Y-10065550D01*
X4540053Y-9875074D02*
X4559101Y-9865550D01*
X4559101Y-9865550D02*
X4597196Y-9865550D01*
X4597196Y-9865550D02*
X4616244Y-9875074D01*
X4616244Y-9875074D02*
X4625767Y-9884598D01*
X4625767Y-9884598D02*
X4635291Y-9903646D01*
X4635291Y-9903646D02*
X4635291Y-9960789D01*
X4635291Y-9960789D02*
X4625767Y-9979836D01*
X4625767Y-9979836D02*
X4616244Y-9989360D01*
X4616244Y-9989360D02*
X4597196Y-9998884D01*
X4597196Y-9998884D02*
X4559101Y-9998884D01*
X4559101Y-9998884D02*
X4540053Y-9989360D01*
X4721005Y-9979836D02*
X4730529Y-9989360D01*
X4730529Y-9989360D02*
X4721005Y-9998884D01*
X4721005Y-9998884D02*
X4711482Y-9989360D01*
X4711482Y-9989360D02*
X4721005Y-9979836D01*
X4721005Y-9979836D02*
X4721005Y-9998884D01*
X4721005Y-9875074D02*
X4730529Y-9884598D01*
X4730529Y-9884598D02*
X4721005Y-9894122D01*
X4721005Y-9894122D02*
X4711482Y-9884598D01*
X4711482Y-9884598D02*
X4721005Y-9875074D01*
X4721005Y-9875074D02*
X4721005Y-9894122D01*
D11*
X3008800Y-10287400D02*
X3088800Y-10367400D01*
X3088800Y-10287400D02*
X3008800Y-10367400D01*
D10*
X3387672Y-10218884D02*
X3406720Y-10218884D01*
X3406720Y-10218884D02*
X3425767Y-10228408D01*
X3425767Y-10228408D02*
X3435291Y-10237931D01*
X3435291Y-10237931D02*
X3444815Y-10256979D01*
X3444815Y-10256979D02*
X3454339Y-10295074D01*
X3454339Y-10295074D02*
X3454339Y-10342693D01*
X3454339Y-10342693D02*
X3444815Y-10380789D01*
X3444815Y-10380789D02*
X3435291Y-10399836D01*
X3435291Y-10399836D02*
X3425767Y-10409360D01*
X3425767Y-10409360D02*
X3406720Y-10418884D01*
X3406720Y-10418884D02*
X3387672Y-10418884D01*
X3387672Y-10418884D02*
X3368624Y-10409360D01*
X3368624Y-10409360D02*
X3359101Y-10399836D01*
X3359101Y-10399836D02*
X3349577Y-10380789D01*
X3349577Y-10380789D02*
X3340053Y-10342693D01*
X3340053Y-10342693D02*
X3340053Y-10295074D01*
X3340053Y-10295074D02*
X3349577Y-10256979D01*
X3349577Y-10256979D02*
X3359101Y-10237931D01*
X3359101Y-10237931D02*
X3368624Y-10228408D01*
X3368624Y-10228408D02*
X3387672Y-10218884D01*
X3540053Y-10399836D02*
X3549577Y-10409360D01*
X3549577Y-10409360D02*
X3540053Y-10418884D01*
X3540053Y-10418884D02*
X3530529Y-10409360D01*
X3530529Y-10409360D02*
X3540053Y-10399836D01*
X3540053Y-10399836D02*
X3540053Y-10418884D01*
X3663862Y-10304598D02*
X3644815Y-10295074D01*
X3644815Y-10295074D02*
X3635291Y-10285550D01*
X3635291Y-10285550D02*
X3625767Y-10266503D01*
X3625767Y-10266503D02*
X3625767Y-10256979D01*
X3625767Y-10256979D02*
X3635291Y-10237931D01*
X3635291Y-10237931D02*
X3644815Y-10228408D01*
X3644815Y-10228408D02*
X3663862Y-10218884D01*
X3663862Y-10218884D02*
X3701958Y-10218884D01*
X3701958Y-10218884D02*
X3721005Y-10228408D01*
X3721005Y-10228408D02*
X3730529Y-10237931D01*
X3730529Y-10237931D02*
X3740053Y-10256979D01*
X3740053Y-10256979D02*
X3740053Y-10266503D01*
X3740053Y-10266503D02*
X3730529Y-10285550D01*
X3730529Y-10285550D02*
X3721005Y-10295074D01*
X3721005Y-10295074D02*
X3701958Y-10304598D01*
X3701958Y-10304598D02*
X3663862Y-10304598D01*
X3663862Y-10304598D02*
X3644815Y-10314122D01*
X3644815Y-10314122D02*
X3635291Y-10323646D01*
X3635291Y-10323646D02*
X3625767Y-10342693D01*
X3625767Y-10342693D02*
X3625767Y-10380789D01*
X3625767Y-10380789D02*
X3635291Y-10399836D01*
X3635291Y-10399836D02*
X3644815Y-10409360D01*
X3644815Y-10409360D02*
X3663862Y-10418884D01*
X3663862Y-10418884D02*
X3701958Y-10418884D01*
X3701958Y-10418884D02*
X3721005Y-10409360D01*
X3721005Y-10409360D02*
X3730529Y-10399836D01*
X3730529Y-10399836D02*
X3740053Y-10380789D01*
X3740053Y-10380789D02*
X3740053Y-10342693D01*
X3740053Y-10342693D02*
X3730529Y-10323646D01*
X3730529Y-10323646D02*
X3721005Y-10314122D01*
X3721005Y-10314122D02*
X3701958Y-10304598D01*
X3863862Y-10218884D02*
X3882910Y-10218884D01*
X3882910Y-10218884D02*
X3901958Y-10228408D01*
X3901958Y-10228408D02*
X3911482Y-10237931D01*
X3911482Y-10237931D02*
X3921005Y-10256979D01*
X3921005Y-10256979D02*
X3930529Y-10295074D01*
X3930529Y-10295074D02*
X3930529Y-10342693D01*
X3930529Y-10342693D02*
X3921005Y-10380789D01*
X3921005Y-10380789D02*
X3911482Y-10399836D01*
X3911482Y-10399836D02*
X3901958Y-10409360D01*
X3901958Y-10409360D02*
X3882910Y-10418884D01*
X3882910Y-10418884D02*
X3863862Y-10418884D01*
X3863862Y-10418884D02*
X3844815Y-10409360D01*
X3844815Y-10409360D02*
X3835291Y-10399836D01*
X3835291Y-10399836D02*
X3825767Y-10380789D01*
X3825767Y-10380789D02*
X3816243Y-10342693D01*
X3816243Y-10342693D02*
X3816243Y-10295074D01*
X3816243Y-10295074D02*
X3825767Y-10256979D01*
X3825767Y-10256979D02*
X3835291Y-10237931D01*
X3835291Y-10237931D02*
X3844815Y-10228408D01*
X3844815Y-10228408D02*
X3863862Y-10218884D01*
X4054339Y-10218884D02*
X4073386Y-10218884D01*
X4073386Y-10218884D02*
X4092434Y-10228408D01*
X4092434Y-10228408D02*
X4101958Y-10237931D01*
X4101958Y-10237931D02*
X4111482Y-10256979D01*
X4111482Y-10256979D02*
X4121005Y-10295074D01*
X4121005Y-10295074D02*
X4121005Y-10342693D01*
X4121005Y-10342693D02*
X4111482Y-10380789D01*
X4111482Y-10380789D02*
X4101958Y-10399836D01*
X4101958Y-10399836D02*
X4092434Y-10409360D01*
X4092434Y-10409360D02*
X4073386Y-10418884D01*
X4073386Y-10418884D02*
X4054339Y-10418884D01*
X4054339Y-10418884D02*
X4035291Y-10409360D01*
X4035291Y-10409360D02*
X4025767Y-10399836D01*
X4025767Y-10399836D02*
X4016243Y-10380789D01*
X4016243Y-10380789D02*
X4006720Y-10342693D01*
X4006720Y-10342693D02*
X4006720Y-10295074D01*
X4006720Y-10295074D02*
X4016243Y-10256979D01*
X4016243Y-10256979D02*
X4025767Y-10237931D01*
X4025767Y-10237931D02*
X4035291Y-10228408D01*
X4035291Y-10228408D02*
X4054339Y-10218884D01*
X4206720Y-10418884D02*
X4206720Y-10285550D01*
X4206720Y-10304598D02*
X4216244Y-10295074D01*
X4216244Y-10295074D02*
X4235291Y-10285550D01*
X4235291Y-10285550D02*
X4263863Y-10285550D01*
X4263863Y-10285550D02*
X4282910Y-10295074D01*
X4282910Y-10295074D02*
X4292434Y-10314122D01*
X4292434Y-10314122D02*
X4292434Y-10418884D01*
X4292434Y-10314122D02*
X4301958Y-10295074D01*
X4301958Y-10295074D02*
X4321005Y-10285550D01*
X4321005Y-10285550D02*
X4349577Y-10285550D01*
X4349577Y-10285550D02*
X4368625Y-10295074D01*
X4368625Y-10295074D02*
X4378148Y-10314122D01*
X4378148Y-10314122D02*
X4378148Y-10418884D01*
X4473386Y-10418884D02*
X4473386Y-10285550D01*
X4473386Y-10304598D02*
X4482910Y-10295074D01*
X4482910Y-10295074D02*
X4501958Y-10285550D01*
X4501958Y-10285550D02*
X4530529Y-10285550D01*
X4530529Y-10285550D02*
X4549577Y-10295074D01*
X4549577Y-10295074D02*
X4559101Y-10314122D01*
X4559101Y-10314122D02*
X4559101Y-10418884D01*
X4559101Y-10314122D02*
X4568625Y-10295074D01*
X4568625Y-10295074D02*
X4587672Y-10285550D01*
X4587672Y-10285550D02*
X4616244Y-10285550D01*
X4616244Y-10285550D02*
X4635291Y-10295074D01*
X4635291Y-10295074D02*
X4644815Y-10314122D01*
X4644815Y-10314122D02*
X4644815Y-10418884D01*
X5035291Y-10209360D02*
X4863863Y-10466503D01*
X5292434Y-10218884D02*
X5311482Y-10218884D01*
X5311482Y-10218884D02*
X5330529Y-10228408D01*
X5330529Y-10228408D02*
X5340053Y-10237931D01*
X5340053Y-10237931D02*
X5349577Y-10256979D01*
X5349577Y-10256979D02*
X5359101Y-10295074D01*
X5359101Y-10295074D02*
X5359101Y-10342693D01*
X5359101Y-10342693D02*
X5349577Y-10380789D01*
X5349577Y-10380789D02*
X5340053Y-10399836D01*
X5340053Y-10399836D02*
X5330529Y-10409360D01*
X5330529Y-10409360D02*
X5311482Y-10418884D01*
X5311482Y-10418884D02*
X5292434Y-10418884D01*
X5292434Y-10418884D02*
X5273387Y-10409360D01*
X5273387Y-10409360D02*
X5263863Y-10399836D01*
X5263863Y-10399836D02*
X5254339Y-10380789D01*
X5254339Y-10380789D02*
X5244815Y-10342693D01*
X5244815Y-10342693D02*
X5244815Y-10295074D01*
X5244815Y-10295074D02*
X5254339Y-10256979D01*
X5254339Y-10256979D02*
X5263863Y-10237931D01*
X5263863Y-10237931D02*
X5273387Y-10228408D01*
X5273387Y-10228408D02*
X5292434Y-10218884D01*
X5444815Y-10399836D02*
X5454339Y-10409360D01*
X5454339Y-10409360D02*
X5444815Y-10418884D01*
X5444815Y-10418884D02*
X5435291Y-10409360D01*
X5435291Y-10409360D02*
X5444815Y-10399836D01*
X5444815Y-10399836D02*
X5444815Y-10418884D01*
X5578148Y-10218884D02*
X5597196Y-10218884D01*
X5597196Y-10218884D02*
X5616244Y-10228408D01*
X5616244Y-10228408D02*
X5625767Y-10237931D01*
X5625767Y-10237931D02*
X5635291Y-10256979D01*
X5635291Y-10256979D02*
X5644815Y-10295074D01*
X5644815Y-10295074D02*
X5644815Y-10342693D01*
X5644815Y-10342693D02*
X5635291Y-10380789D01*
X5635291Y-10380789D02*
X5625767Y-10399836D01*
X5625767Y-10399836D02*
X5616244Y-10409360D01*
X5616244Y-10409360D02*
X5597196Y-10418884D01*
X5597196Y-10418884D02*
X5578148Y-10418884D01*
X5578148Y-10418884D02*
X5559101Y-10409360D01*
X5559101Y-10409360D02*
X5549577Y-10399836D01*
X5549577Y-10399836D02*
X5540053Y-10380789D01*
X5540053Y-10380789D02*
X5530529Y-10342693D01*
X5530529Y-10342693D02*
X5530529Y-10295074D01*
X5530529Y-10295074D02*
X5540053Y-10256979D01*
X5540053Y-10256979D02*
X5549577Y-10237931D01*
X5549577Y-10237931D02*
X5559101Y-10228408D01*
X5559101Y-10228408D02*
X5578148Y-10218884D01*
X5711482Y-10218884D02*
X5835291Y-10218884D01*
X5835291Y-10218884D02*
X5768625Y-10295074D01*
X5768625Y-10295074D02*
X5797196Y-10295074D01*
X5797196Y-10295074D02*
X5816244Y-10304598D01*
X5816244Y-10304598D02*
X5825767Y-10314122D01*
X5825767Y-10314122D02*
X5835291Y-10333170D01*
X5835291Y-10333170D02*
X5835291Y-10380789D01*
X5835291Y-10380789D02*
X5825767Y-10399836D01*
X5825767Y-10399836D02*
X5816244Y-10409360D01*
X5816244Y-10409360D02*
X5797196Y-10418884D01*
X5797196Y-10418884D02*
X5740053Y-10418884D01*
X5740053Y-10418884D02*
X5721006Y-10409360D01*
X5721006Y-10409360D02*
X5711482Y-10399836D01*
X6025767Y-10418884D02*
X5911482Y-10418884D01*
X5968625Y-10418884D02*
X5968625Y-10218884D01*
X5968625Y-10218884D02*
X5949577Y-10247455D01*
X5949577Y-10247455D02*
X5930529Y-10266503D01*
X5930529Y-10266503D02*
X5911482Y-10276027D01*
X6206720Y-10218884D02*
X6111482Y-10218884D01*
X6111482Y-10218884D02*
X6101958Y-10314122D01*
X6101958Y-10314122D02*
X6111482Y-10304598D01*
X6111482Y-10304598D02*
X6130529Y-10295074D01*
X6130529Y-10295074D02*
X6178148Y-10295074D01*
X6178148Y-10295074D02*
X6197196Y-10304598D01*
X6197196Y-10304598D02*
X6206720Y-10314122D01*
X6206720Y-10314122D02*
X6216244Y-10333170D01*
X6216244Y-10333170D02*
X6216244Y-10380789D01*
X6216244Y-10380789D02*
X6206720Y-10399836D01*
X6206720Y-10399836D02*
X6197196Y-10409360D01*
X6197196Y-10409360D02*
X6178148Y-10418884D01*
X6178148Y-10418884D02*
X6130529Y-10418884D01*
X6130529Y-10418884D02*
X6111482Y-10409360D01*
X6111482Y-10409360D02*
X6101958Y-10399836D01*
X6292434Y-10218884D02*
X6292434Y-10256979D01*
X6368625Y-10218884D02*
X6368625Y-10256979D01*
X6663863Y-10495074D02*
X6654339Y-10485550D01*
X6654339Y-10485550D02*
X6635291Y-10456979D01*
X6635291Y-10456979D02*
X6625768Y-10437931D01*
X6625768Y-10437931D02*
X6616244Y-10409360D01*
X6616244Y-10409360D02*
X6606720Y-10361741D01*
X6606720Y-10361741D02*
X6606720Y-10323646D01*
X6606720Y-10323646D02*
X6616244Y-10276027D01*
X6616244Y-10276027D02*
X6625768Y-10247455D01*
X6625768Y-10247455D02*
X6635291Y-10228408D01*
X6635291Y-10228408D02*
X6654339Y-10199836D01*
X6654339Y-10199836D02*
X6663863Y-10190312D01*
X6730529Y-10237931D02*
X6740053Y-10228408D01*
X6740053Y-10228408D02*
X6759101Y-10218884D01*
X6759101Y-10218884D02*
X6806720Y-10218884D01*
X6806720Y-10218884D02*
X6825768Y-10228408D01*
X6825768Y-10228408D02*
X6835291Y-10237931D01*
X6835291Y-10237931D02*
X6844815Y-10256979D01*
X6844815Y-10256979D02*
X6844815Y-10276027D01*
X6844815Y-10276027D02*
X6835291Y-10304598D01*
X6835291Y-10304598D02*
X6721006Y-10418884D01*
X6721006Y-10418884D02*
X6844815Y-10418884D01*
X7082910Y-10418884D02*
X7082910Y-10218884D01*
X7168625Y-10418884D02*
X7168625Y-10314122D01*
X7168625Y-10314122D02*
X7159101Y-10295074D01*
X7159101Y-10295074D02*
X7140053Y-10285550D01*
X7140053Y-10285550D02*
X7111482Y-10285550D01*
X7111482Y-10285550D02*
X7092434Y-10295074D01*
X7092434Y-10295074D02*
X7082910Y-10304598D01*
X7292434Y-10418884D02*
X7273387Y-10409360D01*
X7273387Y-10409360D02*
X7263863Y-10399836D01*
X7263863Y-10399836D02*
X7254339Y-10380789D01*
X7254339Y-10380789D02*
X7254339Y-10323646D01*
X7254339Y-10323646D02*
X7263863Y-10304598D01*
X7263863Y-10304598D02*
X7273387Y-10295074D01*
X7273387Y-10295074D02*
X7292434Y-10285550D01*
X7292434Y-10285550D02*
X7321006Y-10285550D01*
X7321006Y-10285550D02*
X7340053Y-10295074D01*
X7340053Y-10295074D02*
X7349577Y-10304598D01*
X7349577Y-10304598D02*
X7359101Y-10323646D01*
X7359101Y-10323646D02*
X7359101Y-10380789D01*
X7359101Y-10380789D02*
X7349577Y-10399836D01*
X7349577Y-10399836D02*
X7340053Y-10409360D01*
X7340053Y-10409360D02*
X7321006Y-10418884D01*
X7321006Y-10418884D02*
X7292434Y-10418884D01*
X7473387Y-10418884D02*
X7454339Y-10409360D01*
X7454339Y-10409360D02*
X7444815Y-10390312D01*
X7444815Y-10390312D02*
X7444815Y-10218884D01*
X7625768Y-10409360D02*
X7606720Y-10418884D01*
X7606720Y-10418884D02*
X7568625Y-10418884D01*
X7568625Y-10418884D02*
X7549577Y-10409360D01*
X7549577Y-10409360D02*
X7540053Y-10390312D01*
X7540053Y-10390312D02*
X7540053Y-10314122D01*
X7540053Y-10314122D02*
X7549577Y-10295074D01*
X7549577Y-10295074D02*
X7568625Y-10285550D01*
X7568625Y-10285550D02*
X7606720Y-10285550D01*
X7606720Y-10285550D02*
X7625768Y-10295074D01*
X7625768Y-10295074D02*
X7635291Y-10314122D01*
X7635291Y-10314122D02*
X7635291Y-10333170D01*
X7635291Y-10333170D02*
X7540053Y-10352217D01*
X7711482Y-10409360D02*
X7730530Y-10418884D01*
X7730530Y-10418884D02*
X7768625Y-10418884D01*
X7768625Y-10418884D02*
X7787672Y-10409360D01*
X7787672Y-10409360D02*
X7797196Y-10390312D01*
X7797196Y-10390312D02*
X7797196Y-10380789D01*
X7797196Y-10380789D02*
X7787672Y-10361741D01*
X7787672Y-10361741D02*
X7768625Y-10352217D01*
X7768625Y-10352217D02*
X7740053Y-10352217D01*
X7740053Y-10352217D02*
X7721006Y-10342693D01*
X7721006Y-10342693D02*
X7711482Y-10323646D01*
X7711482Y-10323646D02*
X7711482Y-10314122D01*
X7711482Y-10314122D02*
X7721006Y-10295074D01*
X7721006Y-10295074D02*
X7740053Y-10285550D01*
X7740053Y-10285550D02*
X7768625Y-10285550D01*
X7768625Y-10285550D02*
X7787672Y-10295074D01*
X7863863Y-10495074D02*
X7873387Y-10485550D01*
X7873387Y-10485550D02*
X7892434Y-10456979D01*
X7892434Y-10456979D02*
X7901958Y-10437931D01*
X7901958Y-10437931D02*
X7911482Y-10409360D01*
X7911482Y-10409360D02*
X7921006Y-10361741D01*
X7921006Y-10361741D02*
X7921006Y-10323646D01*
X7921006Y-10323646D02*
X7911482Y-10276027D01*
X7911482Y-10276027D02*
X7901958Y-10247455D01*
X7901958Y-10247455D02*
X7892434Y-10228408D01*
X7892434Y-10228408D02*
X7873387Y-10199836D01*
X7873387Y-10199836D02*
X7863863Y-10190312D01*
X8225768Y-10495074D02*
X8216244Y-10485550D01*
X8216244Y-10485550D02*
X8197196Y-10456979D01*
X8197196Y-10456979D02*
X8187672Y-10437931D01*
X8187672Y-10437931D02*
X8178149Y-10409360D01*
X8178149Y-10409360D02*
X8168625Y-10361741D01*
X8168625Y-10361741D02*
X8168625Y-10323646D01*
X8168625Y-10323646D02*
X8178149Y-10276027D01*
X8178149Y-10276027D02*
X8187672Y-10247455D01*
X8187672Y-10247455D02*
X8197196Y-10228408D01*
X8197196Y-10228408D02*
X8216244Y-10199836D01*
X8216244Y-10199836D02*
X8225768Y-10190312D01*
X8301958Y-10285550D02*
X8301958Y-10418884D01*
X8301958Y-10304598D02*
X8311482Y-10295074D01*
X8311482Y-10295074D02*
X8330530Y-10285550D01*
X8330530Y-10285550D02*
X8359101Y-10285550D01*
X8359101Y-10285550D02*
X8378149Y-10295074D01*
X8378149Y-10295074D02*
X8387672Y-10314122D01*
X8387672Y-10314122D02*
X8387672Y-10418884D01*
X8511482Y-10418884D02*
X8492434Y-10409360D01*
X8492434Y-10409360D02*
X8482911Y-10399836D01*
X8482911Y-10399836D02*
X8473387Y-10380789D01*
X8473387Y-10380789D02*
X8473387Y-10323646D01*
X8473387Y-10323646D02*
X8482911Y-10304598D01*
X8482911Y-10304598D02*
X8492434Y-10295074D01*
X8492434Y-10295074D02*
X8511482Y-10285550D01*
X8511482Y-10285550D02*
X8540054Y-10285550D01*
X8540054Y-10285550D02*
X8559101Y-10295074D01*
X8559101Y-10295074D02*
X8568625Y-10304598D01*
X8568625Y-10304598D02*
X8578149Y-10323646D01*
X8578149Y-10323646D02*
X8578149Y-10380789D01*
X8578149Y-10380789D02*
X8568625Y-10399836D01*
X8568625Y-10399836D02*
X8559101Y-10409360D01*
X8559101Y-10409360D02*
X8540054Y-10418884D01*
X8540054Y-10418884D02*
X8511482Y-10418884D01*
X8635292Y-10285550D02*
X8711482Y-10285550D01*
X8663863Y-10218884D02*
X8663863Y-10390312D01*
X8663863Y-10390312D02*
X8673387Y-10409360D01*
X8673387Y-10409360D02*
X8692434Y-10418884D01*
X8692434Y-10418884D02*
X8711482Y-10418884D01*
X8930530Y-10285550D02*
X8930530Y-10485550D01*
X8930530Y-10295074D02*
X8949577Y-10285550D01*
X8949577Y-10285550D02*
X8987673Y-10285550D01*
X8987673Y-10285550D02*
X9006720Y-10295074D01*
X9006720Y-10295074D02*
X9016244Y-10304598D01*
X9016244Y-10304598D02*
X9025768Y-10323646D01*
X9025768Y-10323646D02*
X9025768Y-10380789D01*
X9025768Y-10380789D02*
X9016244Y-10399836D01*
X9016244Y-10399836D02*
X9006720Y-10409360D01*
X9006720Y-10409360D02*
X8987673Y-10418884D01*
X8987673Y-10418884D02*
X8949577Y-10418884D01*
X8949577Y-10418884D02*
X8930530Y-10409360D01*
X9140054Y-10418884D02*
X9121006Y-10409360D01*
X9121006Y-10409360D02*
X9111482Y-10390312D01*
X9111482Y-10390312D02*
X9111482Y-10218884D01*
X9301958Y-10418884D02*
X9301958Y-10314122D01*
X9301958Y-10314122D02*
X9292435Y-10295074D01*
X9292435Y-10295074D02*
X9273387Y-10285550D01*
X9273387Y-10285550D02*
X9235292Y-10285550D01*
X9235292Y-10285550D02*
X9216244Y-10295074D01*
X9301958Y-10409360D02*
X9282911Y-10418884D01*
X9282911Y-10418884D02*
X9235292Y-10418884D01*
X9235292Y-10418884D02*
X9216244Y-10409360D01*
X9216244Y-10409360D02*
X9206720Y-10390312D01*
X9206720Y-10390312D02*
X9206720Y-10371265D01*
X9206720Y-10371265D02*
X9216244Y-10352217D01*
X9216244Y-10352217D02*
X9235292Y-10342693D01*
X9235292Y-10342693D02*
X9282911Y-10342693D01*
X9282911Y-10342693D02*
X9301958Y-10333170D01*
X9368625Y-10285550D02*
X9444815Y-10285550D01*
X9397196Y-10218884D02*
X9397196Y-10390312D01*
X9397196Y-10390312D02*
X9406720Y-10409360D01*
X9406720Y-10409360D02*
X9425768Y-10418884D01*
X9425768Y-10418884D02*
X9444815Y-10418884D01*
X9587673Y-10409360D02*
X9568625Y-10418884D01*
X9568625Y-10418884D02*
X9530530Y-10418884D01*
X9530530Y-10418884D02*
X9511482Y-10409360D01*
X9511482Y-10409360D02*
X9501958Y-10390312D01*
X9501958Y-10390312D02*
X9501958Y-10314122D01*
X9501958Y-10314122D02*
X9511482Y-10295074D01*
X9511482Y-10295074D02*
X9530530Y-10285550D01*
X9530530Y-10285550D02*
X9568625Y-10285550D01*
X9568625Y-10285550D02*
X9587673Y-10295074D01*
X9587673Y-10295074D02*
X9597196Y-10314122D01*
X9597196Y-10314122D02*
X9597196Y-10333170D01*
X9597196Y-10333170D02*
X9501958Y-10352217D01*
X9768625Y-10418884D02*
X9768625Y-10218884D01*
X9768625Y-10409360D02*
X9749577Y-10418884D01*
X9749577Y-10418884D02*
X9711482Y-10418884D01*
X9711482Y-10418884D02*
X9692435Y-10409360D01*
X9692435Y-10409360D02*
X9682911Y-10399836D01*
X9682911Y-10399836D02*
X9673387Y-10380789D01*
X9673387Y-10380789D02*
X9673387Y-10323646D01*
X9673387Y-10323646D02*
X9682911Y-10304598D01*
X9682911Y-10304598D02*
X9692435Y-10295074D01*
X9692435Y-10295074D02*
X9711482Y-10285550D01*
X9711482Y-10285550D02*
X9749577Y-10285550D01*
X9749577Y-10285550D02*
X9768625Y-10295074D01*
X9844816Y-10495074D02*
X9854339Y-10485550D01*
X9854339Y-10485550D02*
X9873387Y-10456979D01*
X9873387Y-10456979D02*
X9882911Y-10437931D01*
X9882911Y-10437931D02*
X9892435Y-10409360D01*
X9892435Y-10409360D02*
X9901958Y-10361741D01*
X9901958Y-10361741D02*
X9901958Y-10323646D01*
X9901958Y-10323646D02*
X9892435Y-10276027D01*
X9892435Y-10276027D02*
X9882911Y-10247455D01*
X9882911Y-10247455D02*
X9873387Y-10228408D01*
X9873387Y-10228408D02*
X9854339Y-10199836D01*
X9854339Y-10199836D02*
X9844816Y-10190312D01*
M02*
